<svg xmlns="http://www.w3.org/2000/svg" width="187" height="174" fill="none"><path fill="url(#a)" d="M81.92 0L3.22.2C2.8.2 2.4.27 2 .43c-.4.16-.76.4-1.06.7-.3.3-.54.66-.7 1.06C.08 2.6 0 3 0 3.43L.36 150.6c0 .44.08.86.25 1.25.17.4.4.75.7 1.05.3.3.67.53 1.06.7.4.16.8.24 1.24.24l78.7-.2c.4 0 .84-.08 1.23-.24.4-.17.75-.4 1.05-.7.3-.3.53-.67.7-1.06.15-.4.24-.8.24-1.24L85.16 3.22c0-.42-.1-.84-.25-1.23-.16-.4-.4-.76-.7-1.06-.3-.3-.65-.54-1.05-.7-.4-.16-.8-.24-1.23-.24z" opacity=".5" transform="translate(48.644 10.411)"/><path fill="#fff" d="M129.42 12.46l-76.4.15c-1.78 0-3.23 1.46-3.22 3.24l.28 143.1c0 1.8 1.45 3.23 3.24 3.23l76.4-.16c1.78 0 3.22-1.44 3.22-3.22l-.3-143.1c0-1.8-1.44-3.23-3.22-3.22z"/><path fill="#63A9FF" d="M112.04 16.2c-.23 1.6-1.03 3.05-2.24 4.1-1.2 1.05-2.76 1.63-4.36 1.64L76.82 22c-1.6 0-3.15-.57-4.37-1.6-1.2-1.06-2-2.5-2.26-4.1l-15.17.05c-.4 0-.82.08-1.2.24-.38.15-.73.4-1.02.68-.28.3-.5.64-.67 1.02-.16.38-.24.8-.24 1.2l.32 135.77c0 .4.1.82.24 1.2.16.4.4.73.7 1.03.28.3.63.52 1 .68.4.15.8.23 1.22.23l72.42-.16c.4 0 .82-.1 1.2-.25.38-.16.73-.4 1.02-.7.3-.28.52-.63.68-1 .16-.4.24-.8.24-1.22l-.33-135.76c0-.42-.07-.83-.23-1.2-.16-.4-.4-.74-.7-1.03-.28-.3-.63-.53-1-.7-.4-.14-.8-.23-1.22-.22l-15.4.03z" opacity=".4"/><path fill="#DBDBDB" d="M99.23 17.93l-17.5.26c-.27 0-.48.2-.48.48v.2c0 .26.22.47.48.47l17.52-.26c.26-.02.47-.23.47-.5v-.2c0-.26-.22-.47-.5-.47zM103.64 19.02c.4 0 .7-.32.7-.7-.02-.4-.33-.7-.72-.7-.38.02-.7.33-.68.72 0 .38.32.68.7.68z"/><path fill="url(#b)" d="M46.8 23.4c0-4.04-1.05-8-3.04-11.52-2-3.52-4.86-6.46-8.32-8.54C31.98 1.26 28.04.1 24 0c-4.04-.1-8.04.85-11.6 2.74-3.57 1.9-6.58 4.7-8.75 8.1C1.5 14.24.25 18.16.03 22.2c-.2 4.03.63 8.05 2.44 11.66 1.8 3.6 4.52 6.7 7.87 8.95l.02.1c.76.75 1.66 1.32 2.65 1.7l.04-.1c1.1.94 5.7 2.44 11 2.43h.12c3.36 0 7-.6 10.2-2.33 0 0 .04-.06.08-.18.8-.38 1.56-.9 2.2-1.5.02-.1.03-.2.04-.27 3.12-2.15 5.67-5.03 7.43-8.38 1.77-3.35 2.7-7.08 2.7-10.87z" opacity=".5" transform="translate(54.283 96.024)"/><path fill="#F5F5F5" d="M77.67 142.12c12.54 0 22.7-10.16 22.7-22.7 0-12.52-10.16-22.68-22.7-22.68-12.53 0-22.7 10.16-22.7 22.7 0 12.52 10.17 22.68 22.7 22.68z"/><path fill="#FDA57D" d="M69 128.76s-5.4.44-3.97 10.3c.74.7 1.6 1.26 2.57 1.64l3.04-10.3-1.63-1.64zM86.55 128.76s5.4.44 3.98 10.3c-.74.7-1.62 1.26-2.57 1.64l-3.05-10.3 1.65-1.64z"/><path fill="#333" d="M69.24 112.62s-2.57 7.5-3.98 6.78c0 0 13.55 11.7 25.5 0 0 0-2.1-3.75-5.14-6.8l-16.38.02zM77.92 121.98c5.56 0 10.06-4.5 10.06-10.06 0-5.56-4.5-10.07-10.06-10.07-5.56 0-10.06 4.5-10.06 10.07 0 5.55 4.5 10.06 10.06 10.06z"/><path d="M86.45 128.76H68.9l-1.63 7.02s-.96 3.25.23 4.68c1.2 1.43 12.38 4.68 20.6.24.7-1.87.8-3.93.23-5.85-.95-3.28-.24-.24-.24-.24l-1.65-5.84zM86.68 128.76H69.14l-1.64 7.02s-.96 3.25.24 4.68c1.2 1.43 12.37 4.68 20.58.24.72-1.87.8-3.93.24-5.85-.95-3.28-.24-.24-.24-.24l-1.64-5.84z" opacity=".1"/><path fill="#6C63FF" d="M86.55 128.76H69l-1.63 7.02s-.96 3.25.23 4.68c1.2 1.43 12.38 4.68 20.6.24.7-1.87.8-3.93.23-5.85-.95-3.28-.24-.24-.24-.24l-1.65-5.84z"/><path d="M74.4 122.94h7v6.8c0 .3-.05.6-.17.88-.1.28-.28.54-.5.76-.22.2-.47.4-.76.5-.28.12-.58.18-.9.18h-2.36c-.6 0-1.2-.25-1.63-.68-.44-.44-.7-1.03-.7-1.65v-6.8h.02z" opacity=".1"/><path fill="#FDA57D" d="M74.4 122.68h7v6.8c0 .3-.05.6-.17.88-.1.3-.28.54-.5.76-.22.22-.47.4-.76.5-.28.12-.58.18-.9.18h-2.36c-.6 0-1.2-.24-1.63-.68-.44-.44-.7-1.03-.7-1.65v-6.8h.02z"/><path d="M74.4 123.7c2.26.83 4.75.84 7.02 0v-.85H74.4v.84z" opacity=".1"/><path fill="#FDA57D" d="M77.92 124.16c5.56 0 10.06-4.5 10.06-10.06 0-5.56-4.5-10.06-10.06-10.06-5.56 0-10.06 4.5-10.06 10.06 0 5.56 4.5 10.06 10.06 10.06z"/><path fill="#333" d="M68.3 110.28h19.2s-1.65-7.75-8.9-7.25-10.3 7.25-10.3 7.25z"/><path fill="#FDA57D" d="M68.07 115.42c.52 0 .94-.78.94-1.75s-.4-1.75-.93-1.75c-.52 0-.93.78-.93 1.75s.4 1.75.93 1.75zM87.72 115.42c.52 0 .94-.78.94-1.75s-.42-1.75-.94-1.75-.93.78-.93 1.75.4 1.75.92 1.75z"/><path d="M68.3 110.54h19.2s-1.65-7.75-8.9-7.25c-7.25.48-10.3 7.24-10.3 7.24z" opacity=".1"/><path fill="url(#c)" d="M0 23.4c0-4.04 1.04-8 3.03-11.52 2-3.52 4.86-6.46 8.32-8.54C14.8 1.26 18.75.1 22.8 0c4.03-.1 8.02.85 11.6 2.74 3.55 1.9 6.57 4.7 8.73 8.1 2.17 3.4 3.42 7.32 3.63 11.35.2 4.03-.64 8.05-2.44 11.66-1.8 3.6-4.52 6.7-7.87 8.95l-.02.1c-.76.75-1.66 1.33-2.65 1.72l-.03-.1c-1.1.94-5.7 2.44-11 2.43h-.13c-3.35 0-7-.6-10.2-2.33 0 0-.03-.06-.07-.18-.8-.38-1.56-.9-2.2-1.5-.02-.1-.03-.2-.04-.27-3.1-2.15-5.67-5.03-7.43-8.4C.9 30.94 0 27.2 0 23.4z" opacity=".5" transform="translate(82.108 34.308)"/><path fill="#F5F5F5" d="M105.5 80.4c12.53 0 22.7-10.15 22.7-22.7 0-12.52-10.17-22.68-22.7-22.68s-22.7 10.16-22.7 22.7c0 12.53 10.17 22.7 22.7 22.7z"/><path fill="#BE7C5E" d="M96.6 66.36s-5.4.44-3.97 10.3c.74.7 1.6 1.25 2.57 1.63L98.24 68l-1.63-1.64zM114.15 66.36s5.4.44 3.97 10.3c-.74.7-1.6 1.25-2.57 1.63L112.5 68l1.65-1.64z"/><path fill="#333" d="M96.84 50.2s-.42 1.22-1 2.62c-1.3 3.07.17 14.84 3.25 16.1 3.45 1.4 8 2.3 12.7.58 4.1-1.5 5.38-14.9 2.48-18.17-.34-.38-.7-.76-1.07-1.13H96.85zM105.52 59.57c5.55 0 10.06-4.5 10.06-10.06 0-5.54-4.5-10.05-10.06-10.05-5.56 0-10.06 4.5-10.06 10.06 0 5.57 4.5 10.07 10.06 10.07z"/><path d="M114.05 66.36H96.5l-1.64 7s-.96 3.26.24 4.7c1.2 1.42 12.37 4.67 20.6.23.7-1.88.8-3.94.23-5.86-.95-3.27-.24-.23-.24-.23l-1.65-5.84zM114.28 66.36H96.73l-1.63 7s-.97 3.26.23 4.7c1.2 1.42 12.37 4.67 20.6.23.7-1.88.8-3.94.23-5.86-.95-3.27-.24-.23-.24-.23l-1.64-5.84z" opacity=".1"/><path fill="#F55F44" d="M114.15 66.36H96.6l-1.63 7s-.96 3.26.23 4.7c1.2 1.42 12.38 4.67 20.6.23.7-1.88.8-3.94.23-5.86-.95-3.27-.24-.23-.24-.23l-1.65-5.84z"/><path d="M101.98 60.53H109v6.8c0 .6-.24 1.2-.68 1.64-.44.44-1.03.7-1.65.7h-2.36c-.6 0-1.2-.26-1.64-.7-.44-.43-.7-1.03-.7-1.64v-6.8h.02z" opacity=".1"/><path fill="#BE7C5E" d="M101.98 60.27H109v6.8c0 .6-.24 1.2-.68 1.64-.44.45-1.03.7-1.65.7h-2.36c-.6 0-1.2-.25-1.64-.7-.44-.42-.7-1.02-.7-1.63v-6.8h.02z"/><path d="M102 61.28c2.26.85 4.75.86 7.02.02v-.86H102v.84z" opacity=".1"/><path fill="#BE7C5E" d="M105.52 61.75c5.55 0 10.06-4.5 10.06-10.06 0-5.56-4.5-10.07-10.06-10.07-5.56 0-10.06 4.5-10.06 10.06 0 5.55 4.5 10.05 10.06 10.05z"/><path fill="#333" d="M95.9 47.87h19.2s-1.65-7.74-8.9-7.25c-7.25.5-10.3 7.25-10.3 7.25z"/><path fill="#BE7C5E" d="M95.67 53.02c.5 0 .93-.8.93-1.75 0-.97-.42-1.76-.93-1.76-.52 0-.94.8-.94 1.77 0 .96.42 1.75.94 1.75zM115.32 53.02c.52 0 .93-.8.93-1.75 0-.97-.4-1.76-.93-1.76-.52 0-.94.8-.94 1.77 0 .96.42 1.75.94 1.75z"/><path d="M95.9 48.13h19.2s-1.65-7.74-8.9-7.25c-7.25.5-10.3 7.25-10.3 7.25z" opacity=".1"/><path fill="url(#d)" d="M0 0v33.78h53.22s3.92 7.73 10.68 9.98c0 0-2.16-5.48.1-9.98h14.8V0H0z" opacity=".5" transform="translate(1.183 37.419)"/><path fill="#fff" d="M3.3 38.58v31.95h53.26s0 6.4 6.4 8.52c0 0-2.14-4.26 0-8.52h14.9V38.58H3.3z"/><path fill="#63A9FF" d="M52.3 44.97H9.7v4.26h42.6v-4.26zM67.2 51.36H9.7v4.26h57.5v-4.26zM60.82 57.75H9.7V62h51.12v-4.25z"/><path fill="url(#e)" d="M78.8 0v33.78H25.6s-3.93 7.73-10.7 9.98c0 0 2.17-5.48-.1-9.98H0V0h78.8z" opacity=".5" transform="translate(103.421 102.501)"/><path fill="#fff" d="M180.1 103.66v31.95h-53.25s0 6.4-6.4 8.53c0 0 2.14-4.26 0-8.52h-14.9v-31.94h74.55z"/><path fill="#63A9FF" d="M156.9 110.05h-42.6v4.26h42.6v-4.25zM171.82 116.44h-57.5v4.26h57.5v-4.26zM165.43 122.83H114.3v4.26h51.13v-4.27z"/><g fill="#47E6B1" opacity=".5"><path d="M20.6 168.98h-.72V173h.7v-4.02zM22.25 171.34v-.7h-4.03v.7h4.03z" opacity=".5"/></g><g fill="#47E6B1" opacity=".5"><path d="M150.52 45.44h-.7v4.02h.7v-4.02zM152.17 47.8v-.7h-4.02v.7h4.02z" opacity=".5"/></g><g fill="#47E6B1" opacity=".5"><path d="M165.66 144.84h-.7v4.02h.7v-4.02zM167.32 147.2v-.7h-4.02v.7h4.02z" opacity=".5"/></g><g fill="#47E6B1" opacity=".5"><path d="M120.93 0h-.7v4.02h.7V0zM122.6 2.37v-.7h-4.03v.7h4.02z" opacity=".5"/></g><path fill="#4D8AF0" d="M61.22 168.58c-.2-.1-.34-.25-.43-.44-.1-.2-.1-.4-.05-.6 0-.05.02-.08.02-.1 0-.1-.02-.2-.07-.28-.05-.08-.13-.14-.2-.17-.1-.04-.2-.04-.3-.02-.08.03-.16.08-.2.16-.03.03-.05.05-.06.08-.1.2-.24.35-.44.44-.2.1-.4.1-.6.04-.04 0-.08-.02-.1-.02-.1 0-.2.02-.27.07-.08.05-.14.13-.18.2-.03.1-.03.2 0 .3.02.08.08.16.15.2.03.03.06.05.1.06.18.1.34.25.42.45.1.2.1.4.04.6 0 .04-.02.07-.02.1 0 .1.02.2.07.27.06.08.14.14.23.17.08.03.18.03.27 0 .1-.02.17-.08.23-.15 0-.03.03-.06.04-.1.1-.18.25-.34.44-.42.2-.1.42-.1.62-.04.04 0 .07 0 .1 0 .1 0 .2 0 .27-.06.07-.05.13-.13.16-.22.03-.1.03-.18 0-.27-.02-.1-.08-.17-.15-.23-.02-.02-.05-.03-.08-.04zM13.7 93.47c-.2-.08-.35-.24-.43-.43-.1-.2-.1-.42-.04-.62 0-.03.02-.06.02-.1 0-.1-.02-.18-.07-.26-.05-.08-.13-.14-.22-.17-.08-.04-.18-.05-.27-.02-.1.03-.18.08-.23.16-.02.02-.04.05-.05.08-.1.2-.24.35-.44.44-.2.08-.4.1-.6.03-.04-.02-.08-.02-.1-.02-.1 0-.2 0-.28.06-.07.06-.13.13-.17.22-.03.1-.03.18 0 .27.02.1.08.17.15.23.03.02.06.03.1.05.18.1.34.25.42.44.1.2.1.4.04.62 0 .03-.02.06-.02.1 0 .1 0 .18.06.27.05.08.13.14.22.18.1.04.2.04.28.02.1-.03.17-.1.23-.17.03-.02.04-.05.05-.08.1-.2.25-.35.44-.44.18-.08.4-.1.6-.03.04 0 .07 0 .1 0 .1.02.2 0 .27-.05.08-.06.14-.13.17-.22.03-.1.03-.18 0-.27-.02-.1-.07-.17-.15-.23-.04-.02-.07-.04-.1-.06zM39.5 114.06c-.2-.1-.35-.24-.44-.43-.08-.2-.1-.42-.03-.62 0-.02 0-.05 0-.1.02-.08 0-.17-.06-.25-.05-.08-.12-.14-.2-.17-.1-.04-.2-.04-.28 0-.1 0-.18.07-.24.14-.02.03-.03.06-.05.1-.07.18-.23.34-.42.43-.2.08-.4.1-.62.03-.03 0-.06 0-.1-.02-.1 0-.18.02-.26.07-.08.06-.14.13-.17.22-.03.1-.04.18 0 .27.02.1.07.17.15.23.02.02.05.03.08.05.2.08.35.24.44.43.1.2.1.4.04.62 0 .03-.02.06-.02.1 0 .1 0 .18.06.27.05.08.12.14.2.17.1.03.2.03.3 0 .1-.02.17-.08.22-.16.02-.02.04-.05.05-.08.1-.2.24-.35.44-.44.18-.1.4-.1.6-.04.03.02.06.02.1.02.1 0 .18 0 .26-.07.08-.05.14-.12.17-.2.04-.1.04-.2 0-.28 0-.1-.07-.17-.14-.23-.04-.02-.07-.04-.1-.06zM186.7 169.9c-.2-.07-.35-.23-.43-.42-.1-.2-.1-.4-.04-.62 0-.03.02-.06.02-.1 0-.1-.02-.18-.07-.26-.05-.08-.13-.14-.22-.17-.08-.03-.18-.04-.27 0-.1.02-.18.07-.24.15 0 .02-.03.05-.04.08-.1.2-.24.35-.44.44-.2.1-.4.1-.6.04-.04 0-.08-.02-.1-.02-.1 0-.2.02-.28.07-.07.04-.13.1-.17.2-.03.1-.03.2 0 .28.02.1.08.16.15.22.03.02.06.04.1.05.18.1.33.24.42.43.1.2.1.42.04.62 0 .03-.02.06-.02.1 0 .1 0 .2.06.27.05.08.13.14.22.18.1.03.2.04.28 0 .1-.02.17-.08.23-.15.03-.03.04-.06.05-.1.1-.18.25-.34.44-.42.18-.1.4-.1.6-.04.04 0 .07 0 .1.02.1 0 .2-.02.27-.07.08-.06.14-.14.17-.23.03-.1.03-.18 0-.27-.02-.1-.07-.17-.15-.23-.04-.02-.07-.04-.1-.06z" opacity=".5"/><path fill="#F55F44" d="M1.42 157.38c.78 0 1.42-.64 1.42-1.42 0-.78-.64-1.42-1.42-1.42-.78 0-1.42.64-1.42 1.42 0 .78.64 1.42 1.42 1.42z" opacity=".5"/><path fill="#4D8AF0" d="M161.64 16.57c.78 0 1.42-.64 1.42-1.42 0-.8-.64-1.42-1.42-1.42-.78 0-1.42.63-1.42 1.42 0 .78.64 1.42 1.42 1.42z" opacity=".5"/><path fill="#47E6B1" d="M24.6 19.4c.8 0 1.43-.63 1.43-1.4 0-.8-.63-1.43-1.42-1.43-.77 0-1.4.63-1.4 1.42 0 .77.63 1.4 1.4 1.4z" opacity=".5"/><path fill="#F55F44" d="M163.06 83.3c.78 0 1.42-.63 1.42-1.4 0-.8-.64-1.43-1.42-1.43-.78 0-1.42.63-1.42 1.42 0 .77.64 1.4 1.42 1.4z" opacity=".5"/><defs><linearGradient id="a" x2="1" gradientUnits="userSpaceOnUse" gradientTransform="matrix(66.952 -159.172 159.172 66.952 -70.303 123.027)"><stop stop-color="#808080" stop-opacity=".25"/><stop offset=".54" stop-color="#808080" stop-opacity=".12"/><stop offset="1" stop-color="#808080" stop-opacity=".1"/></linearGradient><linearGradient id="b" x2="1" gradientUnits="userSpaceOnUse" gradientTransform="matrix(0 -9305.57 9278.08 0 20308.8 32312.8)"><stop stop-color="#808080" stop-opacity=".25"/><stop offset=".54" stop-color="#808080" stop-opacity=".12"/><stop offset="1" stop-color="#808080" stop-opacity=".1"/></linearGradient><linearGradient id="c" x2="1" gradientUnits="userSpaceOnUse" gradientTransform="matrix(0 -9309.32 -9278.08 0 32592.6 20083.4)"><stop stop-color="#808080" stop-opacity=".25"/><stop offset=".54" stop-color="#808080" stop-opacity=".12"/><stop offset="1" stop-color="#808080" stop-opacity=".1"/></linearGradient><linearGradient id="d" x2="1" gradientUnits="userSpaceOnUse" gradientTransform="matrix(0 -8090.13 14570.9 0 22385.9 18705.9)"><stop stop-color="#808080" stop-opacity=".25"/><stop offset=".54" stop-color="#808080" stop-opacity=".12"/><stop offset="1" stop-color="#808080" stop-opacity=".1"/></linearGradient><linearGradient id="e" x2="1" gradientUnits="userSpaceOnUse" gradientTransform="matrix(0 -8090.13 -14570.9 0 -253175 30738.9)"><stop stop-color="#808080" stop-opacity=".25"/><stop offset=".54" stop-color="#808080" stop-opacity=".12"/><stop offset="1" stop-color="#808080" stop-opacity=".1"/></linearGradient></defs></svg>