<svg xmlns="http://www.w3.org/2000/svg" width="225" height="173" fill="none"><path fill="#6C63FF" d="M167.24 169.52c12.6 0 22.8-2.56 22.8-5.72 0-3.16-10.2-5.72-22.8-5.72-12.6 0-22.8 2.56-22.8 5.72 0 3.16 10.2 5.72 22.8 5.72z" opacity=".1"/><path fill="#63A9FF" d="M6.94 119.44c-2.58.9-5.7 2.7-5.18 5.58.26 1.45 1.44 2.53 2.56 3.45 4.77 3.88 10.02 7.15 15.62 9.7 2.67 1.22 5.5 2.34 7.53 4.58 2 2.25 2.95 5.38 3.6 8.4 1.54 7.17 1.92 14.53 1.13 21.82 8.05.15 16.97-.03 22.67-5.85 3.4-3.5 5.24-8.66 9.25-11.36 2.67-1.8 5.97-2.24 9.15-2.62 15.08-1.77 30.23-2.84 45.46-3.2 6.38-.17 12.9-.22 18.86-2.45 5.95-2.25 11.36-7.13 12.57-13.74.18-1.02.3-2.14 1-2.85.62-.63 1.55-.8 2.42-.9l52.32-7.1c2.87-.4 5.84-.83 8.25-2.45 2.33-1.58 3.9-4.1 5.4-6.57 3.46-5.63 7.04-12.44 4.65-18.88-1.9-5.15-7.04-8.12-11.95-9.96-4.9-1.84-10.2-3.13-14.2-6.74-6.06-5.5-7.4-14.6-9.1-22.8-1.56-7.4-3.73-14.66-6.5-21.7-2.46-6.2-5.44-12.3-9.88-17.1-4.46-4.83-10.57-8.24-16.8-8-8.13.33-15.28 6.7-23.42 5.9-6.88-.66-12.47-6.2-18.67-9.64C102.73-1.14 89.76-.6 77.73 1.3c-12.76 2-25.6 5.54-35.92 13.48-2.37 1.82-4.63 3.9-6 6.65-2.14 4.2-1.96 9.3-3.02 13.96C28.48 54.15 5.48 62 .75 80.6c-1.68 6.6-.43 13.78 2.65 19.9 3.32 6.57 9.98 9.38 13.4 15.03-2.3 2.1-6.84 2.85-9.86 3.9z" opacity=".1"/><path stroke="#535461" stroke-width="2" stroke-miterlimit="10" d="M171.27 165.32s-2.06-14.26 4.14-23.65c2.63-3.92 3.93-8.6 3.68-13.3-.13-2.25-.46-4.47-1-6.65"/><path fill="#63A9FF" d="M181.96 115.78c-.23 1.67-3.95 6.1-3.95 6.1s-2.32-5.3-2.1-6.98c.06-.4.2-.8.4-1.14.2-.36.47-.67.8-.9.32-.26.68-.44 1.08-.54.4-.1.8-.13 1.2-.07.4.05.8.2 1.14.4.35.2.65.5.9.82.23.33.4.7.5 1.1.1.4.1.8.04 1.2zM185.64 125.78c-1.1 1.28-6.63 2.97-6.63 2.97s.92-5.73 2.03-7c.27-.3.6-.55.95-.73.36-.18.75-.3 1.15-.3.4-.04.8 0 1.18.14.4.13.74.33 1.04.6.3.26.56.58.73.94.18.36.3.75.32 1.16 0 .4-.04.8-.17 1.18-.12.4-.32.74-.6 1.04zM183.16 141.63c-1.6.54-7.2-.8-7.2-.8s3.65-4.47 5.25-5c.76-.22 1.57-.13 2.26.24.7.36 1.22.98 1.47 1.73.25.74.2 1.55-.12 2.27-.32.7-.9 1.27-1.64 1.56zM178.6 153.2c-1.5.8-7.26.43-7.26.43s2.86-5.04 4.35-5.84c.7-.4 1.54-.48 2.3-.25.4.12.76.3 1.07.56.3.27.57.58.76.93.2.36.3.75.35 1.15.04.4 0 .8-.1 1.2-.13.38-.32.74-.57 1.05-.25.3-.56.57-.9.76zM172.6 128.16c1.04 1.34 6.46 3.36 6.46 3.36s-.58-5.76-1.6-7.1c-.5-.66-1.24-1.08-2.04-1.18-.8-.1-1.62.12-2.26.62-.64.5-1.06 1.23-1.16 2.03-.1.8.12 1.62.6 2.26zM167.44 141.75c1.38.97 7.15 1.27 7.15 1.27s-2.28-5.34-3.66-6.3c-.33-.24-.7-.4-1.1-.5-.4-.1-.8-.1-1.2-.04-.4.07-.8.22-1.13.44-.33.22-.63.5-.86.83-.23.34-.4.7-.48 1.1-.08.4-.1.82-.02 1.22s.23.78.45 1.12c.22.33.5.62.84.85zM164.22 155.65c1.2 1.2 6.83 2.46 6.83 2.46s-1.34-5.62-2.54-6.8c-.27-.3-.6-.53-.98-.7-.38-.14-.78-.22-1.18-.22-.4 0-.8.08-1.18.23-.38.17-.72.4-1 .7-.3.28-.5.62-.66 1-.15.38-.23.78-.22 1.2 0 .4.1.8.25 1.17.16.37.4.7.7 1v-.02z"/><path d="M181.96 115.78c-.23 1.67-3.95 6.1-3.95 6.1s-2.32-5.3-2.1-6.98c.06-.4.2-.8.4-1.14.2-.36.47-.67.8-.9.32-.26.68-.44 1.08-.54.4-.1.8-.13 1.2-.07.4.05.8.2 1.14.4.35.2.65.5.9.82.23.33.4.7.5 1.1.1.4.1.8.04 1.2zM185.64 125.78c-1.1 1.28-6.63 2.97-6.63 2.97s.92-5.73 2.03-7c.27-.3.6-.55.95-.73.36-.18.75-.3 1.15-.3.4-.04.8 0 1.18.14.4.13.74.33 1.04.6.3.26.56.58.73.94.18.36.3.75.32 1.16 0 .4-.04.8-.17 1.18-.12.4-.32.74-.6 1.04zM183.16 141.63c-1.6.54-7.2-.8-7.2-.8s3.65-4.47 5.25-5c.76-.22 1.57-.13 2.26.24.7.36 1.22.98 1.47 1.73.25.74.2 1.55-.12 2.27-.32.7-.9 1.27-1.64 1.56zM178.6 153.2c-1.5.8-7.26.43-7.26.43s2.86-5.04 4.35-5.84c.7-.4 1.54-.48 2.3-.25.4.12.76.3 1.07.56.3.27.57.58.76.93.2.36.3.75.35 1.15.04.4 0 .8-.1 1.2-.13.38-.32.74-.57 1.05-.25.3-.56.57-.9.76zM172.6 128.16c1.04 1.34 6.46 3.36 6.46 3.36s-.58-5.76-1.6-7.1c-.5-.66-1.24-1.08-2.04-1.18-.8-.1-1.62.12-2.26.62-.64.5-1.06 1.23-1.16 2.03-.1.8.12 1.62.6 2.26zM167.44 141.75c1.38.97 7.15 1.27 7.15 1.27s-2.28-5.34-3.66-6.3c-.33-.24-.7-.4-1.1-.5-.4-.1-.8-.1-1.2-.04-.4.07-.8.22-1.13.44-.33.22-.63.5-.86.83-.23.34-.4.7-.48 1.1-.08.4-.1.82-.02 1.22s.23.78.45 1.12c.22.33.5.62.84.85zM164.22 155.65c1.2 1.2 6.83 2.46 6.83 2.46s-1.34-5.62-2.54-6.8c-.27-.3-.6-.53-.98-.7-.38-.14-.78-.22-1.18-.22-.4 0-.8.08-1.18.23-.38.17-.72.4-1 .7-.3.28-.5.62-.66 1-.15.38-.23.78-.22 1.2 0 .4.1.8.25 1.17.16.37.4.7.7 1v-.02z" opacity=".25"/><path stroke="#535461" stroke-width="2" stroke-miterlimit="10" d="M171.44 164.87s-7.64-12.2-5.76-23.3c.82-4.66.12-9.46-2-13.67-1.03-2-2.23-3.9-3.6-5.66"/><path fill="#63A9FF" d="M161.22 115.23c.45 1.63-1.16 7.2-1.16 7.2s-4.27-3.9-4.72-5.54c-.1-.4-.14-.8-.1-1.2.05-.4.18-.8.37-1.14.2-.35.47-.66.8-.9.3-.26.66-.45 1.05-.56.4-.1.8-.14 1.2-.1.4.06.77.18 1.12.38.35.2.66.46.9.78.26.3.44.67.55 1.06zM168.62 122.88c-.5 1.62-4.87 5.4-4.87 5.4s-1.47-5.6-.98-7.2c.24-.78.78-1.43 1.5-1.8.7-.4 1.55-.47 2.32-.23.77.24 1.42.78 1.8 1.5.37.72.45 1.56.2 2.33h.02zM172.74 138.38c-1.24 1.14-6.92 2.2-6.92 2.2s1.55-5.58 2.8-6.7c.6-.56 1.38-.85 2.2-.82.8.04 1.56.4 2.1 1 .56.6.85 1.4.8 2.2-.02.8-.38 1.58-.97 2.13v-.02zM173.24 150.8c-1.04 1.35-6.45 3.35-6.45 3.35s.58-5.76 1.6-7.1c.24-.34.55-.62.9-.82.35-.2.74-.35 1.14-.4.4-.06.8-.04 1.2.07.4.1.77.28 1.1.53.3.25.58.57.78.92.2.36.33.75.38 1.16.05.4 0 .83-.1 1.22-.12.4-.3.76-.56 1.07zM157.67 130.35c1.48.8 7.24.45 7.24.45s-2.84-5.04-4.32-5.84c-.35-.2-.74-.3-1.14-.36-.4-.04-.8 0-1.2.12-.37.1-.73.3-1.04.55-.32.26-.57.57-.77.92-.2.35-.3.74-.35 1.14-.04.4 0 .8.1 1.2.13.38.3.74.57 1.05.25.3.56.56.92.75zM158.42 144.88c1.66.33 7.05-1.74 7.05-1.74s-4.22-3.96-5.88-4.28c-.4-.08-.82-.1-1.22-.02s-.78.23-1.12.46c-.34.22-.64.5-.86.85-.23.34-.4.72-.46 1.12-.08.4-.08.82 0 1.22.1.4.25.77.48 1.1.23.34.53.63.87.85.34.22.72.37 1.12.43zM161.1 158.9c1.57.6 7.23-.53 7.23-.53s-3.5-4.6-5.07-5.2c-.75-.24-1.56-.2-2.26.16-.7.34-1.25.94-1.53 1.67-.28.74-.27 1.55.04 2.27.3.73.88 1.3 1.6 1.63z"/><path fill="url(#a)" d="M0 0v139.35h99.87V0H0z" transform="translate(56.221 11.424)"/><path fill="#F6F7F9" d="M155.22 12.65H57.1v5.3h98.12v-5.3z"/><path fill="#6C63FF" d="M155.22 12.65H57.1v5.3h98.12v-5.3z" opacity=".2"/><path fill="#F6F7F9" d="M155.22 17.96H57.1v131.6h98.12V17.96zM59.68 16.2c.5 0 .9-.4.9-.9s-.4-.9-.9-.9-.9.4-.9.9.4.9.9.9zM62.1 16.2c.5 0 .9-.4.9-.9s-.4-.9-.9-.9-.9.4-.9.9.4.9.9.9zM64.54 16.2c.5 0 .9-.4.9-.9s-.4-.9-.9-.9-.9.4-.9.9.4.9.9.9z"/><path fill="#6C63FF" d="M137.7 26.07H74.6v2.48h63.1v-2.48z" opacity=".2"/><path fill="#63A9FF" d="M137.7 26.07h-8.38v2.48h8.38v-2.48z"/><path fill="#63A9FF" d="M145.86 40.2h-79.4v28.54h79.4V40.2z" opacity=".5"/><path fill="#F6F7F9" d="M134.54 50.6h-45.8v2.47h45.8V50.6zM112.5 55.85H88.74v2.48h23.76v-2.48z"/><path fill="#63A9FF" d="M137.7 63.36h-8.38v2.48h8.38v-2.48z"/><path fill="#F6F7F9" d="M76.03 58.97c2.48 0 4.5-2.02 4.5-4.5 0-2.5-2.02-4.5-4.5-4.5s-4.5 2-4.5 4.5c0 2.48 2.02 4.5 4.5 4.5z"/><path fill="#63A9FF" d="M145.86 76.74h-79.4v28.54h79.4V76.74z" opacity=".5"/><path fill="#F6F7F9" d="M134.54 87.14h-45.8v2.48h45.8v-2.48zM112.5 92.4H88.74v2.48h23.76V92.4z"/><path fill="#63A9FF" d="M137.7 99.9h-8.38v2.5h8.38v-2.5z"/><path fill="#F6F7F9" d="M76.03 95.5c2.48 0 4.5-2 4.5-4.5 0-2.48-2.02-4.5-4.5-4.5s-4.5 2.02-4.5 4.5c0 2.5 2.02 4.5 4.5 4.5z"/><path fill="#63A9FF" d="M145.86 113.28h-79.4v28.54h79.4v-28.54z" opacity=".5"/><path fill="#F6F7F9" d="M134.54 123.68h-45.8v2.48h45.8v-2.48zM112.5 128.94H88.74v2.48h23.76v-2.48z"/><path fill="#63A9FF" d="M137.7 136.45h-8.38v2.48h8.38v-2.48z"/><path fill="#F6F7F9" d="M76.03 132.05c2.48 0 4.5-2 4.5-4.5s-2.02-4.5-4.5-4.5-4.5 2-4.5 4.5 2.02 4.5 4.5 4.5z"/><path fill="url(#b)" d="M2.65 53.08C1.88 56.56.5 60.85.5 60.85c1.37 1.6 7.3 1.87 7.3 1.87h.1c.04.2.08.42.14.62 0 .2-.02.4-.03.6-.07.24-.1.5-.07.75 0 .04.02.1.04.15-.14 3.15-.24 6.5-.15 8.45 0 .55.05 1.1.16 1.64.1.4.16.83.18 1.25.1 2.83-.6 7.6-.6 7.6s.02.06.03.1c-.02.08-.03.12-.03.12.06.2.1.4.1.6.05 2.4-1.3 7.6-1.3 7.6s-1.12 8-.96 11.06c0 .25.03.5.06.73.34 2.55.8 9.64.8 9.64.07.1.15.23.25.33-.03.16-.08.32-.13.48-.53 1.6-.75 3.28-.66 4.96.02.2.04.42.06.64.22 2.6 6.53 1 6.94.68.15-.1.05-1.05-.15-2.25l6.5 1.6s4.6.7 6.8 0c2.18-.68 2.1-2.56-1.03-2.87-2.2-.2-3.93-2.27-4.8-3.48.34-.9 2.83-7.82 3.3-12.1.3-2.76.77-5.5 1.45-8.2l.5-6.36.86-3.76 1.03-4.96c1.17-3.64 1.53-9.72 1.53-9.72l.9-5.97c.12-.65.2-1.3.2-1.97.86.18 1.7.4 2.52.68 1.42-1.1-.6-11.77-.6-11.77s-.96-6.74-1.78-12.88c1.88-.28 3.9.16 3.9.16l11.9.27c.25-.33.47-.68.64-1.05h.5c.08-.1.13-.18.16-.3l.2.05c.8.18 1.55.4 2.3.7 0 0 3.74.45 3.17-3.5-.4-2.94-3.75-1.87-5.42-1.14l-.2.1c-.02-.1-.03-.17-.03-.17l-.54.1c-.02-.08-.06-.16-.1-.24 0 0-5.84-.24-10.57-.95-3.36-.5-5.9-2.43-7.1-3.5-.82-4.23-3.23-5.5-3.23-5.5-1.34-.08-2.54-.67-3.28-1.12-.27-.16-.53-.34-.77-.54l-.13.07h-.02c.8-.76 1.64-1.45 2.37-2.02l.32-.26c1.14-.12 2.25-.5 3.22-1.13.97-.63 1.78-1.47 2.37-2.47.57-1 .9-2.13.97-3.3.06-1.15-.15-2.3-.62-3.36-.03-.07-.06-.14-.1-.2.37-.05.7-.22.97-.47.26-.26.43-.6.48-.97.07-.83-.5-1.7-.13-2.45.07-.1.13-.23.18-.35.03-.1.04-.23.03-.35-.03-.35-.13-.68-.3-1-.17-.3-.4-.56-.7-.77-.83-.62-1.58-.3-2.5-.36C26.8.66 25.75.4 24.7.22c-1.2-.2-2.44-.32-3.65-.1-1.2.2-2.38.8-3.08 1.8-.3.43-.5.92-.8 1.37-.3.5-.72.94-1.1 1.42-.6.8-1.1 1.77-1.06 2.78.03.58.24 1.13.28 1.7 0 .54-.04 1.08-.12 1.6-.06.7-.02 1.38.1 2.05.04.2.12.4.25.58.15.15.32.26.52.33.2.08.4.15.63.2-.24.55-.54 1.1-.88 1.6l-.32-.35-.86 1.37-.05-.1c-.04.1-.1.17-.14.25l-.07-.24c-.4.76-1.1 1.4-1.93 1.93-2.26 1.44-5.4 2.03-5.4 2.03-5.08.73-4.14 6-4.14 6S.7 35.8.1 41.6c-.6 5.8 1.64 9.5 1.64 9.5l.9 1.98zm24.18-17.14c.2.64.37 1.26.5 1.8l-.08.03c-.1-.5-.26-1.13-.42-1.83zM21.25 20.2l-.03.02.03-.03zm-8.75 98c-.24-1.48-.6-3.28-.84-4.35.16-.53.37-1.33.63-2.53.55-2.7.9-12.2.9-12.2l1.3-8c1.22-3.07 1.5-6.7 1.5-6.7.47-1.3 1.6-9.2 1.77-10.45-.05.87-.17 3.1-.23 5.55 0 .02 0 .05 0 .07-.05 1.85-.07 3.84 0 5.5 0 .46.04.9.07 1.3.02.1.03.22.03.33.14 4.28-1.77 9.67-1.77 9.67s-.85 4-.73 6.24c0 .4.06.8.17 1.18.06.18.1.37.1.55.03 2.14-1.23 6.63-1.55 7.72-.7 1.45-1.22 5.14-1.35 6.1z" transform="translate(29.546 36.681)"/><path fill="#4C4C78" d="M49.07 149.05s2.2 4.02 5.3 4.32c3.12.3 3.2 2.17 1.02 2.85-2.18.7-6.74 0-6.74 0l-6.52-1.6s.8-6.47 1.84-6.8c1.04-.34 5.1 1.23 5.1 1.23zM41.13 149.12s1.65 7.43 1.24 7.74c-.4.3-6.66 1.9-6.9-.68 0-.22-.03-.43-.04-.62-.1-1.67.13-3.34.66-4.92.17-.5.25-1 .24-1.52-.1-1.04 4.8 0 4.8 0z"/><path fill="#FFB9B9" d="M43.17 55s5.05 12.43 4.16 8.44c-.6-2.65 3.25-6.17 5.9-8.24 1.35-1.05 2.4-1.73 2.4-1.73s-9.5-11.1-8.8-6.3c.17 1.3 0 2.64-.53 3.86-.7 1.56-1.77 2.92-3.13 3.96zM75.45 72.67c.4-.05.78-.03 1.16.08.77.17 1.52.4 2.26.68 0 0 3.72.45 3.15-3.46-.4-2.92-3.72-1.86-5.37-1.13-.56.24-.94.45-.94.45l-.25 3.37z"/><path d="M75.45 72.67c.4-.05.78-.03 1.16.08.4-1.03.1-3.46.04-3.9-.57.23-.94.44-.94.44l-.25 3.37z" opacity=".1"/><path fill="#CBCDDA" d="M75.43 68.95l.97-.18s.5 3.35-.15 4.23h-1.12l.3-4.05z"/><path fill="#4C4C78" d="M55.9 75.07s3-1.78 3.34.46c.36 2.25.83 6.1.83 6.1l.82 4.9 1.06 9.83-.15 1.67s-3.15-1.06-3.9-.7c-.75.37-1.35-4.1-1.35-4.1l-1.23-4.67-.2-9.88.8-3.6z"/><path d="M55.9 75.07s3-1.78 3.34.46c.36 2.25.83 6.1.83 6.1l.82 4.9 1.06 9.83-.15 1.67s-3.15-1.06-3.9-.7c-.75.37-1.35-4.1-1.35-4.1l-1.23-4.67-.2-9.88.8-3.6z" opacity=".1"/><path fill="#4C4C78" d="M57.5 63.5s3.1 3.5 7.8 4.2c4.68.7 10.46.93 10.46.93s1.46 2.6-.65 5.4l-11.77-.26s-2.6-.57-4.64 0L57.5 63.5z"/><path d="M57.5 63.5s3.1 3.5 7.8 4.2c4.68.7 10.46.93 10.46.93s1.46 2.6-.65 5.4l-11.77-.26s-2.6-.57-4.64 0L57.5 63.5z" opacity=".05"/><path d="M46.8 50.92c1.15 2.47 3.15 4.3 6.06 4.3.13 0 .25 0 .38 0 1.35-1.06 2.4-1.74 2.4-1.74s-9.5-11.1-8.82-6.3c.2 1.45.45 2.64-.02 3.74z" opacity=".1"/><path fill="#FFB9B9" d="M45.63 47.73c0 1.43.42 2.84 1.2 4.03.8 1.2 1.94 2.13 3.26 2.68 1.3.55 2.76.7 4.17.4 1.4-.27 2.7-.96 3.7-1.98 1-1 1.7-2.3 1.98-3.7.28-1.42.14-2.88-.4-4.2-.56-1.33-1.48-2.46-2.67-3.26-1.2-.8-2.6-1.23-4.02-1.23-.95 0-1.9.2-2.77.55-.9.37-1.7.9-2.36 1.57-.67.67-1.2 1.47-1.57 2.35-.36.88-.55 1.83-.54 2.78z"/><path fill="#CBCDDA" d="M41.2 92.08s16.14 1.43 16.74-.64c.6-2.07-1.65-7.66-1.65-7.66l.7-7.8.04-.3s-2.02-8.46-1.95-9.13c.06-.6-3.26-7.7-3.94-9.15l-.13-.26-.13.08-.05.03-.8.46-3.1-.73L43.17 55l-.36 21.6-1.6 15.48z"/><path d="M49.6 57.4s1.1-.3 1.53.8c.16.48.36.94.6 1.4l.42 2.55.78 4.06.58 18-.25 3.2-1.44-2.58-.25-16.8v-2.1c-.08-1.8-.5-3.57-1.2-5.23l-.2-.5-1.25-1.6.7-1.2z" opacity=".1"/><path fill="#4C4C78" d="M49.8 57.17s1.12-.3 1.55.8c.17.48.36.94.6 1.4l.42 2.56.8 4.05.57 17.98-.26 3.2-1.45-2.58-.26-16.8V65.7c-.08-1.8-.5-3.58-1.2-5.25l-.2-.47-1.25-1.6.7-1.2z"/><path d="M45.1 52.52s3.82 4.06 5.16 4.55c0 0-.67 3.08-1.34 3.68 0 0-4-4.1-4.73-4.43l-.6-1.46 1.5-2.34z" opacity=".1"/><path fill="#CBCDDA" d="M45.1 52.3s3.82 4.06 5.16 4.55c0 0-.67 3.08-1.34 3.68 0 0-4-4.1-4.73-4.43l-.6-1.46 1.5-2.33z"/><path d="M50.8 57.14l.05.1 1.22 3.3 2.2 6.2s0 .07.05.2c.36 1.12 2.3 7.25 2.7 9.04l.02-.3s-2.02-8.46-1.95-9.13c.06-.6-3.26-7.7-3.94-9.15-.1-.07-.2-.14-.26-.18l-.1-.08z" opacity=".1"/><path fill="#4C4C78" d="M51.03 57.13l1.26 3.4 2.18 6.22s.02.06.06.18c.38 1.2 2.57 8.08 2.76 9.34.2 1.38 2.95 8.84 2.95 8.84l1.57 12.94c1.4-1.1-.6-11.65-.6-11.65S59 70.7 58.47 65.5c-.54-5.2-3.42-6.75-3.42-6.75-1.32-.07-2.5-.66-3.25-1.1-.27-.17-.53-.34-.77-.54z"/><path d="M35.18 140.3c.34 2.52.8 9.54.8 9.54 1.57 2.37 5.04 1.1 5.04 1.1s.38-.72.94-3.4c.56-2.66.9-12.08.9-12.08l1.3-7.93c1.2-3.04 1.47-6.64 1.47-6.64.52-1.4 1.8-10.53 1.8-10.53s-.53 8.2-.2 12.5c.32 4.32-1.72 10.15-1.72 10.15s-1.16 5.44-.56 7.13c.6 1.7-1.5 8.68-1.5 8.68.2 2.03 6.14 1.2 6.14 1.2s2.8-7.55 3.3-12.1c.3-2.74.77-5.45 1.44-8.13l.48-6.3.87-3.72 1.03-4.92c1.15-3.6 1.5-9.64 1.5-9.64l.9-5.9c.6-2.94-.16-6.36-.67-8.17-.22-.77-.4-1.25-.4-1.25-.5.37-3.47.8-5 1.15-.83.2-1.7.26-2.55.2-3.86-.3-7.68-1-11.4-2.1l-.4-.1-.07.66-.18 1.62-.32 2.86s-1 15.25-.42 17.32c.6 2.06-.4 9-.4 9 .55 1.65-1.2 8.35-1.2 8.35s-1.23 8.94-.9 11.45z" opacity=".1"/><path fill="#474463" d="M35.18 140.08c.34 2.5.8 9.54.8 9.54 1.57 2.37 5.04 1.1 5.04 1.1s.38-.73.94-3.4c.56-2.66.9-12.1.9-12.1l1.3-7.9c1.2-3.05 1.47-6.66 1.47-6.66.52-1.38 1.8-10.52 1.8-10.52s-.53 8.2-.2 12.5c.32 4.33-1.72 10.15-1.72 10.15s-1.16 5.44-.56 7.13c.6 1.7-1.5 8.67-1.5 8.67.2 2.03 6.14 1.2 6.14 1.2s2.8-7.54 3.3-12.1c.3-2.73.77-5.45 1.44-8.12l.48-6.3.87-3.73 1.03-4.92c1.16-3.6 1.5-9.63 1.5-9.63l.9-5.92c.6-2.92-.16-6.35-.67-8.15-.22-.78-.4-1.25-.4-1.25-.5.36-3.47.8-5 1.14-.83.2-1.7.26-2.55.2-3.86-.3-7.68-1-11.4-2.1l-.4-.1-.07.67-.18 1.6-.32 2.86s-1 15.25-.42 17.3c.6 2.08-.4 9.02-.4 9.02.56 1.65-1.2 8.34-1.2 8.34s-1.23 8.94-.9 11.46z"/><path d="M45.63 47.73c0 1.27.33 2.5.95 3.6 1.13.2 2.33 0 3.18-.76.58-.5.95-1.2 1.45-1.8.33-.36.67-.7 1.04-1.02.24-.24.5-.44.8-.6.17-.07.33-.1.5-.12.18 0 .34.04.5.1.4.24.53.73.76 1.13.17.34.47.6.83.73.18.04.37.04.54-.02.18-.06.33-.18.44-.33.26-.42.08-1.08.5-1.34.1-.04.2-.1.32-.13.53-.24.6-.95.64-1.53.02-.3.08-.6.32-.77.24-.15.55-.07.84-.07.08 0 .17 0 .25-.02-.67-1.52-1.84-2.76-3.32-3.52-1.48-.76-3.17-.98-4.8-.64-1.6.35-3.07 1.24-4.1 2.53-1.05 1.3-1.62 2.9-1.62 4.57z" opacity=".1"/><path fill="#472727" d="M59.9 38.3c.28.2.5.47.68.77.17.3.27.64.3 1 0 .1 0 .22-.03.33-.05.12-.1.23-.17.34-.37.74.2 1.6.12 2.43-.05.4-.23.75-.52 1-.3.27-.67.42-1.05.42-.3 0-.6-.1-.84.06-.26.16-.3.48-.34.77-.04.58-.1 1.3-.63 1.53-.12.04-.23.1-.34.14-.42.26-.24.92-.48 1.34-.1.15-.26.27-.44.33s-.37.06-.55 0c-.36-.12-.65-.38-.83-.72-.22-.4-.36-.9-.76-1.1-.15-.1-.32-.13-.5-.12-.16 0-.33.04-.48.12-.3.15-.58.35-.8.6-.38.3-.73.65-1.05 1-.48.6-.86 1.3-1.43 1.8-1.1.97-2.76 1.06-4.1.52-.2-.07-.37-.18-.5-.33-.13-.17-.2-.37-.24-.58-.14-.67-.18-1.35-.12-2.03.1-.52.13-1.05.13-1.58-.04-.57-.24-1.12-.27-1.68-.05-1 .45-1.97 1.06-2.77.37-.47.78-.9 1.1-1.42.27-.44.48-.93.77-1.36.7-.98 1.85-1.58 3.05-1.8 1.2-.2 2.42-.07 3.6.13 1.05.17 2.1.42 3.16.5.92.04 1.67-.27 2.5.35z"/><path d="M51.03 57.13l1.26 3.4 2.18 6.22s.02.06.06.18l-2.76-9.27c-.26-.16-.5-.33-.75-.53z" opacity=".1"/><path fill="#FFB9B9" d="M37.37 96.02s-.13 4.1.98 5.14l2.93-5.56-2.47-1.2-1.43 1.62z"/><path d="M30.52 97.52c1.34 1.6 7.2 1.86 7.2 1.86l5.82-9.18s1.38-.96 3.95-5.27c2.57-4.3 2.5-7.63 2.36-10.1-.14-2.5-1.78-9.6-1.78-9.6-.25-1.62-3.87-11.67-3.87-11.67-.37.76-1.07 1.4-1.9 1.92-2.23 1.4-5.36 1.98-5.36 1.98-5.02.74-4.1 5.95-4.1 5.95s-.06 20.27.26 22.7c.3 2.4-2.58 11.42-2.58 11.42z" opacity=".1"/><path fill="#CBCDDA" d="M37.3 96.8l.17 1.5 2.04-.74L41 95.3l-1.12-.9-2.58 2.4z"/><path d="M37.37 91l1.07.1 10.3 1.03c1.64.17 3.3.08 4.93-.24l4.77-.97c-.22-.78-.4-1.25-.4-1.25-.5.36-3.46.8-5 1.14-.83.2-1.7.26-2.55.2-3.87-.3-7.7-1-11.42-2.1l-.46.57-1.25 1.5z" opacity=".1"/><g opacity=".1"><path d="M57.93 89.73c.03 0 .07-.03.1-.05v.02l-.1.03zM36.07 128.62s1.76-6.7 1.2-8.34c0 0 1-6.94.4-9-.6-2.07.42-17.32.42-17.32l.33-2.86.2-1.6.07-.7s.14.05.4.13l.23.07-.05.27-.2 1.6-.32 2.87s-1 15.24-.4 17.3c.58 2.08-.42 9.02-.42 9.02.56 1.64-1.2 8.34-1.2 8.34s-1.24 8.94-.9 11.46c.34 2.5.8 9.54.8 9.54 1.13 1.73 3.3 1.5 4.38 1.27 0 .03-.02.04-.02.04s-3.48 1.3-5.05-1.08c0 0-.45-7.02-.8-9.54-.32-2.5.92-11.46.92-11.46zM44.94 139.93c-.6-1.7.56-7.14.56-7.14s2.06-5.83 1.72-10.15c-.14-1.8-.13-4.27-.07-6.54.48-2.9.93-6.18.93-6.18s-.52 8.18-.18 12.5-1.72 10.15-1.72 10.15-1.16 5.44-.56 7.13c.6 1.7-1.5 8.68-1.5 8.68.15 1.62 4 1.4 5.5 1.27l-.05.15s-5.95.83-6.13-1.2c0 0 2.1-7 1.5-8.67z" opacity=".1"/></g><path fill="#4C4C78" d="M30.3 97.52c1.34 1.6 7.2 1.86 7.2 1.86l5.8-9.18s1.4-.96 3.97-5.27c2.58-4.3 2.5-7.63 2.36-10.1-.13-2.5-1.77-9.6-1.77-9.6C47.6 63.6 44 53.55 44 53.55c-.4.76-1.1 1.4-1.92 1.92-2.24 1.4-5.36 1.98-5.36 1.98-5.03.74-4.1 5.95-4.1 5.95s-.05 20.26.26 22.68c.3 2.42-2.6 11.44-2.6 11.44z"/><path d="M42.92 58.54l1.26.48-.84.6 6.28 15.2c-.14-2.48-1.77-9.6-1.77-9.6-.25-1.6-3.87-11.66-3.87-11.66-.38.76-1.08 1.4-1.9 1.92l.84 3.06zM41.4 85.64L35 83.98l-.85 2.62 6.57 1.6.7-2.56zM37.73 59.6s2.92 2.78 1.82 8.9c-1.1 6.15-2.86 12.83-2.86 12.83l4.74 13.2s-3.3 3.47-4.94 3.9l-4.74-10.57s-2.22-3.66-1.63-9.4c.6-5.75 2.72-15.05 2.72-15.05s0-5.65 4.88-3.8z" opacity=".1"/><path fill="#4C4C78" d="M37.5 59.6s2.93 2.78 1.83 8.9c-1.1 6.15-2.86 12.83-2.86 12.83l4.74 13.2s-3.3 3.47-4.93 3.9l-4.74-10.57s-2.22-3.66-1.63-9.4c.6-5.75 2.72-15.05 2.72-15.05s0-5.65 4.9-3.8z"/><path d="M41.05 94.82s-3.7 5.14-3.42 6.52c.28 1.38 1.36.64 1.36.64l1.46-2 1.3-3.77s-.12-1.6-.7-1.38zM41.5 94.82s-3.7 5.14-3.42 6.52c.28 1.38 1.37.64 1.37.64l1.46-2 1.32-3.76s-.13-1.62-.7-1.4z" opacity=".1"/><path fill="#474463" d="M41.28 94.82s-3.7 5.14-3.42 6.52c.28 1.38 1.37.64 1.37.64l1.45-2 1.3-3.76s-.1-1.62-.7-1.4z"/><defs><linearGradient id="a" x2="1" gradientUnits="userSpaceOnUse" gradientTransform="matrix(0 -139.355 138.856 0 -19.492 139.355)"><stop stop-color="#808080" stop-opacity=".25"/><stop offset=".54" stop-color="#808080" stop-opacity=".12"/><stop offset="1" stop-color="#808080" stop-opacity=".1"/></linearGradient><linearGradient id="b" x2="1" gradientUnits="userSpaceOnUse" gradientTransform="matrix(0 -74727.7 -32455.4 0 -38170.6 98762.1)"><stop stop-color="#808080" stop-opacity=".25"/><stop offset=".54" stop-color="#808080" stop-opacity=".12"/><stop offset="1" stop-color="#808080" stop-opacity=".1"/></linearGradient></defs></svg>