<svg xmlns="http://www.w3.org/2000/svg" width="224" height="173" fill="none"><path fill="#63A9FF" d="M48.47.13c-7.2-.26-14.7-.45-21.2 2.63-6.5 3.1-11.52 10.55-9.34 17.4.7 2.25 2.1 4.2 3.27 6.23 5.84 10.18 6.1 23.34.7 33.76-4.18 8.02-11.24 14.12-16.33 21.6C.5 89.23-2.4 99.58 2.6 107.1c3.43 5.17 9.78 7.68 15.94 8.28 6.16.6 12.36-.35 18.54-.6 12.04-.46 24.03 1.8 35.06 6.64 15.2 6.66 28.3 18.05 44.3 22.45 1.9.53 3.92.96 5.88.6 3.48-.64 6.02-3.52 8.74-5.8 8.7-7.2 20.76-8.55 32.06-8.88 11.3-.35 23.07-.1 33.3-4.94 8.9-4.24 15.78-12.12 20.05-21.02 4.27-8.9 6.12-18.8 6.82-28.65.4-5.87.4-11.93-1.7-17.4-2.37-6.2-7.16-11.1-12.17-15.4-5.25-4.5-10.96-8.56-17.43-10.98-7.74-2.9-16.13-3.3-24.36-4-16.9-1.4-33.64-4.1-50.1-8.04-15.65-3.74-32.82-7.82-47.06-15.44C63.33.12 56.52.42 48.48.14z" opacity=".1"/><g fill="#6C63FF" opacity=".1"><path d="M147.6 130.2s.73-10.27 6.5-15.86c2.44-2.33 4.05-5.4 4.6-8.7.25-1.6.36-3.2.3-4.8" opacity=".1"/><path d="M162.63 97.3c-.43 1.13-3.7 3.65-3.7 3.65s-.83-4.05-.4-5.18c.2-.55.6-1 1.14-1.23.53-.24 1.13-.26 1.67-.06.55.2 1 .62 1.23 1.14.24.53.26 1.13.06 1.68zM163.68 104.84c-.98.72-5.1 1.05-5.1 1.05s1.5-3.86 2.5-4.58c.45-.33 1.03-.46 1.6-.37.56.1 1.06.4 1.4.86.34.47.5 1.04.4 1.6-.06.57-.36 1.08-.8 1.44zM159.52 115.5c-1.2.13-4.93-1.65-4.93-1.65s3.24-2.56 4.44-2.7c.56-.02 1.1.16 1.54.52.42.37.7.88.76 1.43.06.56-.1 1.12-.43 1.56-.33.45-.83.75-1.38.84zM154.56 122.86c-1.16.33-5.13-.8-5.13-.8s2.76-3.07 3.92-3.4c.28-.1.58-.13.87-.1.3.03.57.1.83.25s.5.34.67.56c.2.23.32.5.4.78.08.28.1.57.07.86-.04.3-.14.57-.28.83-.15.25-.34.47-.58.65-.23.18-.5.3-.78.38zM154.2 104.5c.5 1.1 4 3.32 4 3.32s.47-4.1-.05-5.2c-.26-.5-.7-.9-1.24-1.07-.53-.2-1.12-.15-1.64.1-.5.24-.9.67-1.1 1.2-.2.54-.2 1.13.04 1.65zM148.5 113.18c.83.9 4.8 1.98 4.8 1.98s-.76-4.06-1.58-4.95c-.4-.4-.94-.66-1.52-.7-.58 0-1.14.2-1.57.6-.42.4-.68.93-.7 1.5-.02.6.18 1.16.58 1.58zM144.13 122.38c.66 1 4.4 2.76 4.4 2.76s-.07-4.14-.73-5.15c-.32-.48-.82-.8-1.37-.9-.56-.12-1.14 0-1.62.3-.47.3-.8.8-.93 1.35-.13.56-.03 1.14.26 1.63zM162.63 97.3c-.43 1.13-3.7 3.65-3.7 3.65s-.83-4.05-.4-5.18c.2-.55.6-1 1.14-1.23.53-.24 1.13-.26 1.67-.06.55.2 1 .62 1.23 1.14.24.53.26 1.13.06 1.68zM163.68 104.84c-.98.72-5.1 1.05-5.1 1.05s1.5-3.86 2.5-4.58c.45-.33 1.03-.46 1.6-.37.56.1 1.06.4 1.4.86.34.47.5 1.04.4 1.6-.06.57-.36 1.08-.8 1.44zM159.52 115.5c-1.2.13-4.93-1.65-4.93-1.65s3.24-2.56 4.44-2.7c.56-.02 1.1.16 1.54.52.42.37.7.88.76 1.43.06.56-.1 1.12-.43 1.56-.33.45-.83.75-1.38.84zM154.56 122.86c-1.16.33-5.13-.8-5.13-.8s2.76-3.07 3.92-3.4c.28-.1.58-.13.87-.1.3.03.57.1.83.25s.5.34.67.56c.2.23.32.5.4.78.08.28.1.57.07.86-.04.3-.14.57-.28.83-.15.25-.34.47-.58.65-.23.18-.5.3-.78.38zM154.2 104.5c.5 1.1 4 3.32 4 3.32s.47-4.1-.05-5.2c-.26-.5-.7-.9-1.24-1.07-.53-.2-1.12-.15-1.64.1-.5.24-.9.67-1.1 1.2-.2.54-.2 1.13.04 1.65zM148.5 113.18c.83.9 4.8 1.98 4.8 1.98s-.76-4.06-1.58-4.95c-.4-.4-.94-.66-1.52-.7-.58 0-1.14.2-1.57.6-.42.4-.68.93-.7 1.5-.02.6.18 1.16.58 1.58zM144.13 122.38c.66 1 4.4 2.76 4.4 2.76s-.07-4.14-.73-5.15c-.32-.48-.82-.8-1.37-.9-.56-.12-1.14 0-1.62.3-.47.3-.8.8-.93 1.35-.13.56-.03 1.14.26 1.63z" opacity=".1"/></g><g fill="#6C63FF" opacity=".1"><path d="M149.62 91.37s.73-10.26 6.5-15.85c2.44-2.33 4.06-5.4 4.6-8.72.26-1.58.36-3.18.32-4.78" opacity=".1"/><path d="M164.66 58.47c-.42 1.13-3.7 3.65-3.7 3.65s-.83-4.05-.4-5.18c.2-.54.6-.98 1.14-1.22.53-.24 1.13-.27 1.67-.06.55.2 1 .6 1.23 1.14.24.53.26 1.13.06 1.67zM165.7 66c-.96.73-5.08 1.06-5.08 1.06s1.5-3.84 2.48-4.56c.23-.18.5-.32.78-.4.28-.07.57-.1.86-.05.3.04.57.13.82.28.26.15.47.35.65.58.18.25.3.52.38.8.07.28.08.58.03.87-.03.3-.14.56-.3.8-.15.26-.35.47-.6.64zM161.55 76.68c-1.2.13-4.93-1.66-4.93-1.66s3.25-2.56 4.45-2.7c.3-.02.58 0 .86.08.28.07.54.2.77.4.23.17.42.4.56.64.14.26.23.54.27.83.03.3 0 .58-.08.86s-.22.54-.4.76c-.2.22-.42.4-.67.54-.26.14-.54.22-.83.25v-.02zM156.6 84.04c-1.17.33-5.15-.8-5.15-.8s2.77-3.08 3.93-3.4c.56-.16 1.15-.1 1.65.2.5.27.87.74 1.03 1.3.16.55.1 1.14-.18 1.65-.28.5-.74.87-1.3 1.04zM156.22 65.68c.52 1.1 4 3.32 4 3.32s.48-4.1-.04-5.2c-.12-.26-.3-.5-.5-.7-.22-.2-.47-.35-.74-.45-.27-.1-.56-.15-.85-.14-.3.03-.6.1-.85.22-.27.13-.5.3-.7.52-.2.2-.34.47-.43.74-.1.28-.14.57-.12.86.02.3.1.57.22.84zM150.53 74.36c.83.9 4.8 1.97 4.8 1.97s-.76-4.06-1.58-4.94c-.4-.42-.94-.66-1.5-.68-.58 0-1.14.2-1.56.58-.43.4-.68.93-.7 1.5-.04.57.16 1.13.53 1.56zM146.16 83.55c.66 1.02 4.4 2.77 4.4 2.77s-.07-4.14-.73-5.15c-.15-.25-.35-.47-.6-.64-.23-.17-.5-.3-.8-.36-.27-.06-.57-.07-.85-.02-.3.06-.57.16-.8.32-.26.16-.47.37-.63.6-.17.26-.28.53-.34.82-.04.27-.04.57.02.86.06.28.17.55.34.8zM164.66 58.47c-.42 1.13-3.7 3.65-3.7 3.65s-.83-4.05-.4-5.18c.2-.54.6-.98 1.14-1.22.53-.24 1.13-.27 1.67-.06.55.2 1 .6 1.23 1.14.24.53.26 1.13.06 1.67zM165.7 66c-.96.73-5.08 1.06-5.08 1.06s1.5-3.84 2.48-4.56c.23-.18.5-.32.78-.4.28-.07.57-.1.86-.05.3.04.57.13.82.28.26.15.47.35.65.58.18.25.3.52.38.8.07.28.08.58.03.87-.03.3-.14.56-.3.8-.15.26-.35.47-.6.64zM161.55 76.68c-1.2.13-4.93-1.66-4.93-1.66s3.25-2.56 4.45-2.7c.3-.02.58 0 .86.08.28.07.54.2.77.4.23.17.42.4.56.64.14.26.23.54.27.83.03.3 0 .58-.08.86s-.22.54-.4.76c-.2.22-.42.4-.67.54-.26.14-.54.22-.83.25v-.02zM156.6 84.04c-1.17.33-5.15-.8-5.15-.8s2.77-3.08 3.93-3.4c.56-.16 1.15-.1 1.65.2.5.27.87.74 1.03 1.3.16.55.1 1.14-.18 1.65-.28.5-.74.87-1.3 1.04zM156.22 65.68c.52 1.1 4 3.32 4 3.32s.48-4.1-.04-5.2c-.12-.26-.3-.5-.5-.7-.22-.2-.47-.35-.74-.45-.27-.1-.56-.15-.85-.14-.3.03-.6.1-.85.22-.27.13-.5.3-.7.52-.2.2-.34.47-.43.74-.1.28-.14.57-.12.86.02.3.1.57.22.84zM150.53 74.36c.83.9 4.8 1.97 4.8 1.97s-.76-4.06-1.58-4.94c-.4-.42-.94-.66-1.5-.68-.58 0-1.14.2-1.56.58-.43.4-.68.93-.7 1.5-.04.57.16 1.13.53 1.56zM146.16 83.55c.66 1.02 4.4 2.77 4.4 2.77s-.07-4.14-.73-5.15c-.15-.25-.35-.47-.6-.64-.23-.17-.5-.3-.8-.36-.27-.06-.57-.07-.85-.02-.3.06-.57.16-.8.32-.26.16-.47.37-.63.6-.17.26-.28.53-.34.82-.04.27-.04.57.02.86.06.28.17.55.34.8z" opacity=".1"/></g><g fill="#6C63FF" opacity=".1"><path d="M39.94 104.8S31.1 99.54 28.7 91.87c-.98-3.22-2.98-6.04-5.7-8.02-1.3-.94-2.7-1.75-4.14-2.43" opacity=".1"/><path d="M17.32 76.6c.82.88 1.6 4.94 1.6 4.94s-4-1.1-4.8-1.98c-.4-.42-.58-.98-.55-1.55.03-.56.28-1.1.7-1.48.4-.4.97-.6 1.54-.6.58.03 1.12.26 1.52.67zM24.52 79.06c.2 1.2-1.35 5.02-1.35 5.02S20.42 81 20.2 79.8c-.05-.28-.05-.57 0-.86.07-.3.2-.56.35-.8.17-.24.38-.45.62-.6.25-.16.52-.27.8-.32.3-.05.6-.04.88.02.28.07.55.2.8.36.23.17.43.4.58.64.15.25.25.53.3.82zM32.18 87.55c-.4 1.13-3.7 3.65-3.7 3.65s-.82-4.05-.4-5.18c.1-.28.24-.53.44-.75.2-.22.43-.4.7-.52.26-.13.54-.2.84-.2.3-.02.58.02.86.13.27.1.52.25.73.46.22.2.4.44.5.7.12.27.2.56.2.85 0 .3-.06.58-.17.85zM36.52 95.3c-.22 1.18-3.02 4.22-3.02 4.22s-1.5-3.85-1.28-5.03c.06-.3.17-.57.32-.8.16-.25.36-.45.6-.62.24-.16.5-.27.8-.33.27-.06.56-.06.84 0 .28.05.55.15.8.3.23.17.44.37.6.6.16.25.28.5.34.8.06.28.06.57 0 .85zM19.96 87.36c1.2.03 4.77-2.07 4.77-2.07S21.27 83 20.07 83c-.58 0-1.13.2-1.54.6-.4.4-.65.95-.66 1.53-.02.57.2 1.12.6 1.54.38.42.92.67 1.5.7zM25.16 96.35c1.16-.34 3.93-3.4 3.93-3.4s-4-1.15-5.15-.8c-.55.16-1 .54-1.27 1.04s-.34 1.08-.18 1.63c.16.55.52 1.02 1.02 1.3s1.1.36 1.64.22zM31.4 104.4c1.2-.15 4.45-2.7 4.45-2.7s-3.72-1.8-4.92-1.65c-.3 0-.6.1-.86.22-.26.13-.5.32-.7.55-.2.22-.33.5-.42.77-.08.27-.1.57-.08.87.03.3.13.58.27.84.15.27.35.5.6.67.22.18.5.3.78.38.3.07.6.1.9.04zM17.32 76.6c.82.88 1.6 4.94 1.6 4.94s-4-1.1-4.8-1.98c-.4-.42-.58-.98-.55-1.55.03-.56.28-1.1.7-1.48.4-.4.97-.6 1.54-.6.58.03 1.12.26 1.52.67zM24.52 79.06c.2 1.2-1.35 5.02-1.35 5.02S20.42 81 20.2 79.8c-.05-.28-.05-.57 0-.86.07-.3.2-.56.35-.8.17-.24.38-.45.62-.6.25-.16.52-.27.8-.32.3-.05.6-.04.88.02.28.07.55.2.8.36.23.17.43.4.58.64.15.25.25.53.3.82zM32.18 87.55c-.4 1.13-3.7 3.65-3.7 3.65s-.82-4.05-.4-5.18c.1-.28.24-.53.44-.75.2-.22.43-.4.7-.52.26-.13.54-.2.84-.2.3-.02.58.02.86.13.27.1.52.25.73.46.22.2.4.44.5.7.12.27.2.56.2.85 0 .3-.06.58-.17.85zM36.52 95.3c-.22 1.18-3.02 4.22-3.02 4.22s-1.5-3.85-1.28-5.03c.06-.3.17-.57.32-.8.16-.25.36-.45.6-.62.24-.16.5-.27.8-.33.27-.06.56-.06.84 0 .28.05.55.15.8.3.23.17.44.37.6.6.16.25.28.5.34.8.06.28.06.57 0 .85zM19.96 87.36c1.2.03 4.77-2.07 4.77-2.07S21.27 83 20.07 83c-.58 0-1.13.2-1.54.6-.4.4-.65.95-.66 1.53-.02.57.2 1.12.6 1.54.38.42.92.67 1.5.7zM25.16 96.35c1.16-.34 3.93-3.4 3.93-3.4s-4-1.15-5.15-.8c-.55.16-1 .54-1.27 1.04s-.34 1.08-.18 1.63c.16.55.52 1.02 1.02 1.3s1.1.36 1.64.22zM31.4 104.4c1.2-.15 4.45-2.7 4.45-2.7s-3.72-1.8-4.92-1.65c-.3 0-.6.1-.86.22-.26.13-.5.32-.7.55-.2.22-.33.5-.42.77-.08.27-.1.57-.08.87.03.3.13.58.27.84.15.27.35.5.6.67.22.18.5.3.78.38.3.07.6.1.9.04z" opacity=".1"/></g><path fill="#6C63FF" d="M148.2 166.72c5.92 2.58 13.16 1 19.9 1.2.92.02 1.9.1 2.64.54.73.45 1.1 1.17 1.6 1.8 1.9 2.3 5.76 3.03 9.14 2.64 3.38-.4 6.48-1.68 9.67-2.67 5.52-1.7 11.82-2.48 17.26-.62.5.18 1.04.38 1.57.3 1.2-.14 1.55-1.38 2.38-2.08 1.5-1.28 4.77-.93 5.44-2.6.37-1-.52-2-1.5-2.68-3.7-2.57-9.03-3-13.9-2.6-4.85.4-9.64 1.5-14.53 1.5-6.1 0-11.98-1.68-18-2.37-4.2-.47-8.75-.4-12.67 1-4.24 1.5-5.18 4.9-9 6.65zM35.85 158.8c10.13 2.92 22.5 1.14 34 1.35 1.57.03 3.23.1 4.5.62 1.26.5 1.88 1.32 2.75 2.02 3.22 2.6 9.82 3.43 15.6 3 5.76-.46 11.05-1.92 16.5-3.03 9.4-1.92 20.16-2.8 29.45-.7.85.2 1.75.4 2.66.33 2.05-.17 2.65-1.56 4.08-2.36 2.57-1.45 8.15-1.05 9.27-2.95.67-1.12-.86-2.26-2.5-3.02-6.36-2.9-15.43-3.38-23.74-2.94-8.3.45-16.46 1.7-24.8 1.7-10.4 0-20.45-1.9-30.74-2.68-7.14-.54-14.92-.47-21.6 1.1-7.26 1.73-8.86 5.58-15.4 7.54zM8.74 165.95c2.9 1.74 6.4.68 9.68.8.45.02.93.07 1.3.37.35.3.53.8.77 1.2.9 1.56 2.8 2.06 4.43 1.8 1.65-.27 3.16-1.14 4.7-1.8 2.7-1.15 5.76-1.68 8.4-.42.23.15.5.22.76.2.57-.1.75-.93 1.15-1.4.73-.86 2.33-.62 2.65-1.76.2-.67-.25-1.35-.72-1.8-1.8-1.73-4.4-2.02-6.76-1.75-2.37.25-4.7.98-7.08.98-2.96 0-5.82-1.13-8.76-1.6-2.03-.32-4.25-.28-6.16.67-2.06 1.03-2.52 3.33-4.38 4.5z" opacity=".1"/><path fill="url(#a)" d="M104.87 0H8.8C7.67 0 6.5.22 5.45.66c-1.06.44-2.04 1.1-2.85 1.9-.83.82-1.48 1.8-1.93 2.86C.23 6.5 0 7.62 0 8.78v133.1c0 2.33.94 4.56 2.6 6.2 1.64 1.66 3.88 2.58 6.2 2.58h96.07c1.16 0 2.3-.23 3.37-.67 1.07-.45 2.04-1.1 2.86-1.9.82-.83 1.47-1.8 1.9-2.86.45-1.07.68-2.2.7-3.37V8.77c-.02-1.14-.25-2.28-.7-3.35-.43-1.07-1.08-2.04-1.9-2.85-.82-.82-1.8-1.47-2.86-1.9-1.07-.45-2.2-.67-3.37-.67z" transform="translate(38.919 7.379)"/><path fill="#535461" d="M147.1 9.18H44.4c-2.28 0-4.13 1.86-4.13 4.14v139.23c0 2.3 1.85 4.14 4.14 4.14h102.7c2.3 0 4.14-1.86 4.14-4.15V13.32c0-2.28-1.85-4.14-4.13-4.14z"/><path fill="#F6F7F9" d="M145.6 23.14H45.9v119.6h99.7V23.14zM95.3 17.3c.75 0 1.36-.6 1.36-1.35 0-.75-.6-1.36-1.35-1.36-.74 0-1.35.6-1.35 1.35 0 .75.6 1.35 1.36 1.35zM95.3 153.53c2.25 0 4.07-1.82 4.07-4.06 0-2.24-1.82-4.06-4.06-4.06-2.24 0-4.05 1.83-4.05 4.07s1.8 4.06 4.06 4.06z"/><path fill="#6C63FF" d="M145.6 23.14H45.9v5.96h99.7v-5.96z" opacity=".2"/><path fill="#F6F7F9" d="M49.03 27.4c.7 0 1.27-.58 1.27-1.28 0-.7-.57-1.27-1.27-1.27-.7 0-1.27.56-1.27 1.27 0 .7.57 1.27 1.27 1.27zM52.27 27.4c.7 0 1.27-.58 1.27-1.28 0-.7-.57-1.27-1.27-1.27-.7 0-1.27.56-1.27 1.27 0 .7.57 1.27 1.27 1.27zM55.5 27.4c.7 0 1.28-.58 1.28-1.28 0-.7-.57-1.27-1.27-1.27-.7 0-1.26.56-1.26 1.27 0 .7.56 1.27 1.27 1.27z"/><path fill="#DCE0ED" d="M141.72 58.3H48.9v.3h92.82v-.3zM141.72 65.5H48.9v.3h92.82v-.3zM141.72 72.7H48.9v.3h92.82v-.3zM141.72 79.9H48.9v.3h92.82v-.3zM141.72 87.1H48.9v.3h92.82v-.3z"/><path fill="#6C63FF" d="M141.72 87.4H48.77V73.26l8.53 4.2 8.82 1.2 7.74-2.34 9.34-7.23 4.7-2.7 3.43-.67 3.3.17 5.4 2.67 7.34 4.68 5.76.74 4.57-1.58 9.7-7.93 4.93-1.76 5.18.8 4.22 2.42v21.5z" opacity=".2"/><path fill="#63A9FF" d="M64.98 78.64c-8.38 0-16.1-5.12-16.2-5.18l.22-.35c.12.1 12.03 7.97 22.15 4.02 3.68-1.44 6.3-3.67 8.85-5.84 2.65-2.26 5.16-4.4 8.57-5.32 3.92-1.06 8.2-.1 11.45 2.58 2.78 2.28 8.32 5.95 14.17 4.85 2.97-.57 5.48-2.74 8.14-5.05 5.1-4.42 10.38-9 19.5-2.43l-.24.33c-8.86-6.37-14-1.9-19 2.4-2.7 2.36-5.25 4.56-8.34 5.15-6 1.13-11.67-2.62-14.5-4.95-3.15-2.58-7.3-3.5-11.08-2.5-3.32.9-5.8 3.02-8.4 5.25-2.58 2.2-5.23 4.45-8.98 5.9-2.02.78-4.16 1.16-6.32 1.14zM93.56 67.98c1.27 0 2.3-1.03 2.3-2.3 0-1.28-1.03-2.3-2.3-2.3-1.27 0-2.3 1.02-2.3 2.3 0 1.27 1.03 2.3 2.3 2.3z"/><path fill="#6C63FF" d="M123.58 35.22H94.55c-.13 0-.25.05-.34.14-.07.1-.12.2-.12.34v19.63c0 .1.02.18.08.26.05.07.13.13.2.16.1.04.2.05.3.03.08-.03.17-.08.23-.15l5.02-5.37c.05-.04.1-.08.16-.1.06-.03.12-.04.18-.04h23.32c.12 0 .24-.05.33-.14.1-.1.15-.2.15-.34V35.7c0-.13-.05-.25-.14-.34-.08-.1-.2-.14-.32-.14z" opacity=".2"/><path fill="#F6F7F9" d="M117.33 38.86H100.8v2.07h16.53v-2.07zM105.33 43.44h-4.53v2.07h4.53v-2.06z"/><path fill="#6C63FF" d="M61.27 102.2h-4.54v2.07h4.54v-2.06zM61.27 106.2h-4.54v2.07h4.54v-2.07zM61.27 110.2h-4.54v2.07h4.54v-2.07zM61.27 114.2h-4.54v2.07h4.54v-2.07zM61.27 118.2h-4.54v2.06h4.54v-2.07zM61.27 122.2h-4.54v2.06h4.54v-2.07zM61.27 126.2h-4.54v2.06h4.54v-2.07zM61.27 130.2h-4.54v2.05h4.54v-2.06zM69.8 132.25h-4.53v2.07h4.54v-2.07zM77.8 132.25h-4.53v2.07h4.54v-2.07zM85.8 132.25h-4.54v2.07h4.54v-2.07zM93.8 132.25h-4.54v2.07h4.54v-2.07zM101.8 132.25h-4.55v2.07h4.54v-2.07zM109.8 132.25h-4.55v2.07h4.54v-2.07zM117.78 132.25h-4.54v2.07h4.54v-2.07zM125.77 132.25h-4.54v2.07h4.54v-2.07zM133.77 132.25h-4.54v2.07h4.54v-2.07z" opacity=".2"/><path fill="#F6F7F9" d="M117.33 43.44h-6.9v2.07h6.9v-2.06z"/><path fill="#63A9FF" d="M69.8 117.23h-4.53v12.96h4.54v-12.97zM77.8 111.23h-4.53v18.96h4.54v-18.97zM85.8 106.2h-4.54v24h4.54v-24zM93.8 108.8h-4.54v21.38h4.54V108.8zM101.8 104.27h-4.55v25.92h4.54v-25.93z"/><path fill="#6C63FF" d="M109.8 114.2h-4.55v16h4.54v-16zM117.78 114.2h-4.54v16h4.54v-16zM125.77 114.2h-4.54v16h4.54v-16zM133.77 114.2h-4.54v16h4.54v-16z" opacity=".2"/><path fill="url(#b)" d="M44.46 26.1c-4.9-2.82-6.77-3.52-6.78-3.52l-.1-.08c-.53-.4-.96-.94-1.24-1.56 0-.1 0-.23 0-.34v.04c.08-1.5 1.15-2.86 2.16-4.05l2.58-3.05c.3-.3.52-.66.67-1.06.05-.22.07-.44.07-.65 0-.1 0-.18 0-.27-.02-.75-.04-1.5-.07-2.27-.02-.65-.2-1.48-.85-1.62-.34-.07-.8.05-.98-.24-.06-.12-.07-.26-.04-.4 0 .02 0 .03 0 .04v-.04c.13-.5.2-1.03.24-1.55.02-.28-.02-.54-.1-.8-.4-1.1-1.7-1.54-2.86-1.75-1.17-.2-2.47-.38-3.2-1.3-.23-.27-.38-.6-.64-.87-.33-.3-.74-.5-1.18-.58-1.45-.36-2.97-.23-4.33.37-.55.25-1.12.6-1.73.55-.62-.03-1.2-.48-1.82-.58-1.03-.18-2 .57-2.5 1.46-.3.53-.46 1.12-.47 1.73 0 .03 0 .07 0 .1 0 .65.22 1.28.66 1.76.45.45 1.1.76 1.28 1.37.08.24.06.5.13.75 0 .03 0 .06.03.1l-.04.04c-1.05 1.35-1.62 3-1.62 4.73 0 1.65.55 3.27 1.54 4.6 1 1.34 2.38 2.32 3.97 2.82 0 .07 0 .15 0 .23 0 .94-.27 1.9-1.07 2.6l-6.96 2.8s-4.2-.5-5.7 5.63c-.25 1.02-.34 2.07-.27 3.12.06.92-.07 2.55-1.15 4.66-1.72 3.37-1.33 11.1 2.2 11.87 3.3.72 4.62.4 4.75.4v.12c-.06 1.45-.58 13.97-2.5 15.5-.53.4-.43.7 0 .88 0 0 0 .08 0 .23-.07.9-.37 4.4-1.65 6.4C13.4 76.73 13.55 90 13.55 90l-1 7.82s.62 4.83 0 5.67c-.56.74-1.3 18.6-1.45 22.47h-.06c-.3 0-.6.1-.87.27-.26.16-.48.38-.63.64-.83 1.34-3.7 3.8-3.7 3.8-.63.9-2.94 1.74-4.16 2.14-.17.05-.32.12-.47.2-.45.25-.82.64-1.04 1.1-.08.15-.13.3-.15.46 0 .16 0 .32.05.47.3.77 6.8 1.3 8.44.54 1.3-.62 6.4-1.4 8.53-1.72.38-.05.74-.22 1.02-.5.27-.27.45-.63.5-1 0-.15 0-.3-.03-.42-.04-.13-.1-.25-.18-.36-.4-.5-.62-1.88-.7-2.77.16-.07.32-.17.47-.3-.17-2.77.23-5.56 1.18-8.18 1.56-4.14 2.03-11.8 1.65-16.78 0 0 4.78-20.53 8.53-22.45.06.08 1.88 2.42 2.1 9.65.25 7.36 2.9 12.18 2.9 12.18s-1.17 12.5 0 17.16l-1.53 7.4c-.1-.1-.18-.18-.18-.18s.04.2.1.53l-.03.15.07.02c.16.92.42 2.53.3 3.47-.05.53-.2 1.26-.3 2-.16 1.12-.2 2.22.4 2.47.97.4 6.72.93 7.7-.34.22-.25.36-.57.4-.9.06-.34.02-.68-.12-1-.07-.16-.17-.33-.28-.47 0 0-1.53-2.5-1.1-4.26.04-.17.05-.35.02-.52-.04-.18-.1-.34-.2-.5.07-.85.4-4.85 1.32-8.24.97-3.7 3.04-11.77 1.52-17.1-.06-.2-.12-.4-.2-.6-.87-2.9-1.16-5.96-.85-8.97-.56-2.58-.56-5.24 0-7.82.94-4.3 1.6-8.5 1.6-8.5s.52-5.67.07-9.14l-.04-.22.25-.05s-1.33-5.9-1.8-9.65c-.1-.9-.25-2-.4-3.2.42-.08.85-.2 1.27-.33 4.2-1.46 5.53-14.63 5.53-14.63v-4.18s1.4-6.4-3.52-9.23zM13 127.86c-.13-.07-.2-.1-.2-.1l.2.1z" transform="translate(160.113 30.236)"/><path fill="#65617D" d="M202.03 132.38c1.83 5.27-.3 13.82-1.3 17.63-1 3.83-1.3 8.4-1.3 8.4-3.9.62-6.72-.14-6.72-.14l1.62-7.86c-1.15-4.65 0-17.1 0-17.1s-2.6-4.8-2.83-12.14c-.23-7.2-2-9.54-2.08-9.6-3.66 1.9-8.32 22.36-8.32 22.36.4 4.96-.07 12.6-1.6 16.7-.93 2.63-1.3 5.4-1.15 8.18-.53.45-1.27.53-2.07.4-2.18-.36-4.78-2.24-4.78-2.24s.82-22.3 1.44-23.13c.62-.84 0-5.65 0-5.65l1-7.8s-.16-13.2 1.3-15.5c1.25-1.97 1.53-5.45 1.6-6.36 0-.14 0-.22 0-.22l2.2-2.65s21.4-1.6 23 0c.4.4.63 1.3.77 2.4.45 3.48-.05 9.13-.05 9.13s-.64 4.2-1.56 8.47c-.56 2.57-.56 5.22 0 7.8-.3 3-.03 6.03.83 8.93z"/><path fill="#A27772" d="M200.7 165.86c-.96 1.26-6.57.72-7.53.33-.58-.25-.54-1.35-.38-2.48.1-.72.24-1.45.3-2 .15-1.36-.46-4.15-.46-4.15s1.26 1.34 1.56 0c.14-.58.6-.88 1.1-1.03.65-.2 1.35-.15 1.97.12 1 .43 2.65 1.35 2.35 2.6-.4 1.74 1.07 4.23 1.07 4.23.1.14.2.3.27.47.13.3.17.65.12.98-.05.33-.2.65-.4.9z"/><path d="M200.7 165.86c-.96 1.26-6.57.72-7.53.33-.58-.25-.54-1.35-.38-2.48.6.28 1.62.52 3.33.36.4-.04.8-.05 1.2-.04 1.2.06 2.43.03 3.64-.07.13.3.17.65.13.98-.05.33-.2.65-.4.9zM181.1 133.9c.4 4.97-.07 12.6-1.6 16.73-.92 2.6-1.3 5.4-1.14 8.16-.53.44-1.27.52-2.08.4.46-3.23 2.43-17.1 3.7-28.06 1.42-12.48 8.1-21.07 8.1-21.07l1.35 1.47c-3.67 1.9-8.32 22.37-8.32 22.37z" opacity=".1"/><path fill="#FBBEBE" d="M198.4 53.67l-.93 4.58-4.57 7.67-5.63-2.4s-7.65-8.02-2.84-9.16c.58-.13 1.12-.37 1.6-.72.94-.7 1.24-1.74 1.24-2.76 0-1.67-.78-3.28-.78-3.28l9.83-3.1c-.4 1.3-.64 2.63-.7 4-.08 2.68.92 4 1.74 4.62.3.25.65.44 1.03.55z"/><path d="M196.34 44.5c-.4 1.3-.64 2.64-.7 4-.2.2-.38.4-.58.6-1.02.98-2.28 1.66-3.65 1.97-1.36.3-2.8.25-4.13-.2 0-1.66-.78-3.27-.78-3.27l9.84-3.1z" opacity=".1"/><path fill="#FBBEBE" d="M197.47 43.25c0 1.54-.46 3.04-1.32 4.32-.85 1.3-2.07 2.28-3.5 2.87-1.4.6-2.98.74-4.5.44-1.5-.3-2.9-1.04-3.98-2.13-1.1-1.1-1.83-2.48-2.13-4-.3-1.5-.14-3.07.45-4.5.58-1.4 1.58-2.63 2.86-3.48 1.28-.86 2.8-1.3 4.33-1.3 1 0 2.03.2 2.97.58.95.4 1.8.96 2.53 1.68.72.73 1.3 1.6 1.7 2.54.38.94.57 1.96.57 2.98z"/><path d="M198.4 53.67l-.93 4.58-4.57 7.67-5.63-2.4s-7.65-8.02-2.84-9.16c.58-.13 1.12-.37 1.6-.72-.87 2.4 2.7 7.36 2.7 7.36.43.62 1.4.23 1.4.23 2.3-.35 6.55-7 7.24-8.1.3.25.66.43 1.03.54zM202.8 98.08c-1.34.3-8.85 1.97-11.7 1.55-3.12-.46-9.2-.76-9.2-.76s-3.88.2-5.07-.34c0-.14 0-.22 0-.22l2.22-2.64s21.38-1.6 22.98 0c.4.4.63 1.3.78 2.42z" opacity=".1"/><path fill="#7CA8DD" d="M188.74 61.23s-4.02-5.6-2.5-7.76l-6.8 2.8s-4.1-.5-5.6 5.6c-.23 1.02-.32 2.07-.25 3.1.05.93-.08 2.56-1.13 4.65-1.68 3.36-1.3 11.07 2.14 11.84 3.45.76 4.67.38 4.67.38s-.46 13.97-2.45 15.57c-1.98 1.62 5.06 1.24 5.06 1.24s6.1.3 9.22.76c3.13.46 11.9-1.6 11.9-1.6s-1.3-5.88-1.75-9.62c-.45-3.74-1.52-11.7-1.52-11.7l7.78-10.55s1.4-6.38-3.42-9.2c-4.8-2.83-6.62-3.52-6.62-3.52s-4.82 7.87-7.34 8.26c0 0-.96.38-1.38-.23z"/><path d="M179.8 63.44s-.06 2.52.4 3.5c.45 1 2.13 6.5 2.13 6.5h-3.82s2.08-2.2 1.92-3.28c-.16-1.07-.6-6.72-.6-6.72z" opacity=".1"/><path fill="#FBBEBE" d="M191.1 82.45s-8.42-2.07-9.2-3.82c-.8-1.75-2.96-5.68-2.96-5.68l.9-1.2 4.1 3.22s4.88 3.9 7.17 4.27c2.3.4 0 3.2 0 3.2z"/><path d="M191.1 82.45s-8.42-2.07-9.2-3.82c-.8-1.75-2.96-5.68-2.96-5.68l.9-1.2 4.1 3.22s4.88 3.9 7.17 4.27c2.3.4 0 3.2 0 3.2z" opacity=".05"/><path fill="#FBBEBE" d="M198.4 72.53v4.57h-.73c-3.64 0-7.2.93-10.4 2.7l-1.36.75-.36.2-2.37-5.32 2.2-2h.13c.54.07 2.88.26 3.87-.07.95-.32 2.12-1.34 4.9-.62 1.36.35 2.53 1.88 3.86 1.4l.27-1.6z"/><path d="M205.77 64.2l1.53 1.72v4.16s-1.3 13.13-5.43 14.6c-4.12 1.44-11.48-.86-11.48-.86s-1.9-5.03-1.02-5.34c.9-.3 7.86-2.14 7.86-2.14s-.1-7.7 1.43-10c0 0-1-7.17 2.44-7.33 3.45-.14 4.67 5.2 4.67 5.2z" opacity=".1"/><path fill="#7CA8DD" d="M206 64.2l1.53 1.72v4.16s-1.3 13.13-5.43 14.6c-4.14 1.44-11.5-.86-11.5-.86s-1.9-5.03-1-5.34c.9-.3 7.86-2.14 7.86-2.14s-.1-7.7 1.43-10c0 0-1-7.17 2.43-7.33 3.44-.14 4.67 5.2 4.67 5.2z"/><path d="M195.33 46.56c.03-.5.04-1.04-.17-1.5-.22-.44-.72-.8-1.2-.7-.67.16-.95 1-1.6 1.22-.53.17-1.12-.2-1.37-.72-.27-.5-.28-1.1-.28-1.65 0-.63 0-1.27 0-1.9 0-.7-.02-1.45-.45-2-.53-.67-1.78-.97-2.62-.94-.55 0-1.1.22-1.5.6-.44.38-.96.66-1.57.56-.25-.04-.5-.15-.68-.3-.2-.18-.34-.4-.4-.65v-.02c.64-.86 1.46-1.57 2.4-2.1.93-.52 1.97-.85 3.04-.95 1.07-.1 2.15 0 3.18.35 1.02.33 1.96.87 2.76 1.6.8.7 1.45 1.58 1.9 2.56.44 1 .68 2.05.7 3.12.02 1.08-.2 2.15-.6 3.14-.42 1-1.03 1.88-1.8 2.63.12-.78.2-1.56.25-2.34z" opacity=".1"/><path fill="#7C5C5C" d="M184.58 39.3c-.25-.05-.5-.16-.68-.33-.2-.17-.34-.4-.42-.63-.06-.25-.04-.5-.12-.76-.17-.6-.82-.9-1.24-1.37-.86-.9-.8-2.4-.2-3.5.5-.88 1.46-1.63 2.45-1.46.62.1 1.15.55 1.78.6.63.03 1.15-.3 1.7-.56 1.32-.6 2.8-.73 4.22-.38.43.1.83.3 1.16.6.22.27.43.56.62.86.72.9 2 1.08 3.12 1.3 1.14.2 2.42.64 2.8 1.73.24.72 0 1.5-.14 2.26-.05.15-.04.3.03.46.18.3.62.17.96.24.64.14.8.97.82 1.62.03.76.05 1.5.06 2.26.04.35 0 .7-.13 1.03-.12.33-.32.62-.58.86l-2.53 3.03c-1.12 1.34-2.3 2.9-2.08 4.64-.54.24-1.17-.22-1.34-.78-.18-.55-.04-1.14.08-1.7.2-1 .34-2 .4-3 .03-.5.04-1.03-.18-1.48-.2-.45-.72-.83-1.2-.7-.66.15-.94 1-1.58 1.2-.54.18-1.13-.2-1.4-.7-.25-.52-.25-1.1-.26-1.66v-1.92c0-.7-.02-1.45-.45-2-.53-.67-1.78-.96-2.6-.94-.57 0-1.1.23-1.5.6-.46.4-.98.66-1.6.57z"/><path d="M186.34 63.25l2.4 9.82s1.88 0-2.4-9.82zM194.5 61.6s-3.12 5.14-1.9 10.43l.58.05s-1.04-2.46 1.33-10.47zM196.5 90.62s3.84-1.27 4.12 1.68c0 0-.73-2.02-4.13-1.68zM185.38 73.68s-.76 5.34.62 7.48c0 0-2.8 1.15-6.7.92l-.48-8.4h6.56zM185.9 80.55l-.36.2-2.37-5.32 2.2-2h.13c-.04.27-.65 4.86.4 7.12z" opacity=".1"/><path fill="#7CA8DD" d="M185.38 73.44s-.76 5.35.62 7.48c0 0-2.8 1.15-6.7.92l-2.7-8.4h8.78z"/><path fill="#A27772" d="M178.78 162.6c-.04.4-.2.74-.48 1.02-.27.27-.62.45-1 .5-2.07.3-7.07 1.1-8.33 1.7-1.6.76-7.94.23-8.25-.54-.08-.3-.04-.63.1-.9.23-.48.6-.87 1.05-1.12.14-.08.3-.15.46-.2 1.2-.4 3.44-1.24 4.05-2.13 0 0 2.8-2.46 3.6-3.8.16-.25.38-.47.63-.63.27-.16.56-.25.86-.27.67-.04 1.42.3 1.72 1.77 0 0 3.66 2.1 4.65.25 0 0 .16 2.82.76 3.6.07.1.13.22.16.35.04.14.04.27.02.4z"/><path d="M178.78 162.6c-.04.4-.2.74-.48 1.02-.27.27-.62.45-1 .5-2.07.3-7.07 1.1-8.33 1.7-1.6.76-7.94.23-8.25-.54-.08-.3-.04-.63.1-.9.23-.48.6-.87 1.05-1.12 1.03.7 3.32 1.36 8.37.57 4.8-.75 7.2-1.48 8.35-2 .07.12.13.25.16.38.04.14.04.27.02.4z" opacity=".1"/><g opacity=".1"><path d="M199.62 37.77v-.04c.1-.57.27-1.16.23-1.73-.05.46-.13.93-.23 1.4-.03.1-.03.24 0 .37zM195.16 44.9c.12.3.18.58.2.9.02-.43-.04-.85-.2-1.23-.2-.46-.72-.82-1.2-.7-.67.15-.95 1-1.6 1.2-.53.18-1.12-.2-1.38-.7-.25-.52-.26-1.1-.26-1.66 0-.63 0-1.27 0-1.9 0-.7-.02-1.45-.45-2-.53-.68-1.78-.97-2.62-.95-.55 0-1.1.23-1.5.6-.44.4-.96.67-1.57.57-.25-.04-.5-.15-.68-.32-.2-.17-.34-.4-.4-.63-.08-.25-.06-.5-.13-.76-.18-.58-.83-.9-1.24-1.35-.4-.44-.63-1.02-.65-1.62-.03.36 0 .7.12 1.05.1.34.3.65.53.9.43.47 1.07.78 1.24 1.38.07.24.05.5.12.75.06.26.2.48.4.65.2.16.43.27.68.3.62.1 1.13-.17 1.58-.55.4-.38.94-.6 1.5-.6.82-.03 2.08.27 2.6.95.44.54.46 1.3.46 2 0 .62 0 1.26 0 1.9 0 .57 0 1.16.26 1.65.27.5.85.9 1.4.72.63-.2.9-1.06 1.57-1.2.5-.12 1 .24 1.2.7zM201.43 42.8c-.14.4-.36.76-.65 1.06-.84 1-1.68 2.02-2.52 3.03-1.06 1.27-2.18 2.74-2.1 4.37.08-1.5 1.12-2.85 2.1-4.04l2.52-3.02c.3-.3.5-.65.65-1.05.06-.27.1-.55.07-.82 0 .16-.03.32-.07.48zM194.86 50.76c-.04-.14-.07-.28-.07-.42-.04.26 0 .5.06.75.17.55.8 1 1.33.77-.02-.1-.03-.23-.03-.34-.54.22-1.15-.23-1.3-.77z" opacity=".1"/></g><path d="M169.48 157.83s.8 1.4 3.7.17zM193.93 158.17s2.5 2.94 5.64.97zM201.2 123.45s-1.77 1.1-1.83 1.73c-.06.63.9-.46.9-.46l.92-1.27zM201.9 131.9c-.62.5-1.4.8-2.18.83-1.32.06-1.2 1.78-.35 1.26.86-.52 2.52-2.1 2.52-2.1zM202.22 133s-.85 4.14-1.53 3.34z" opacity=".1"/><path fill="#63A9FF" d="M28.28 152.32s1.13 1.5-.53 3.72c-1.66 2.24-3.03 4.14-2.48 5.54 0 0 2.5-4.17 4.55-4.23 2.04-.05.7-2.53-1.54-5.03z"/><path d="M28.28 152.32c.1.14.17.3.23.47 2 2.32 3.06 4.5 1.14 4.56-1.78.05-3.92 3.24-4.42 4.04 0 .06.03.12.06.18 0 0 2.5-4.16 4.54-4.22 2.05-.06.7-2.54-1.54-5.04z" opacity=".1"/><path fill="#FFD037" d="M30.4 154.2c0 .54-.07.96-.14.96-.08 0-.14-.42-.14-.95 0-.5.08-.26.15-.26.07 0 .12-.25.12.27zM31.1 154.84c-.45.25-.85.4-.88.34-.04-.07.3-.32.77-.57.44-.24.26-.06.3 0 .03.08.27 0-.2.24z"/><path fill="#63A9FF" d="M22.28 152.32s-1.14 1.5.52 3.72c1.66 2.24 3.03 4.14 2.48 5.54 0 0-2.5-4.17-4.55-4.23-2.04-.05-.7-2.53 1.55-5.03z"/><path d="M22.28 152.32c-.1.14-.18.3-.24.47-2 2.32-3.05 4.5-1.13 4.56 1.8.05 3.94 3.24 4.44 4.04-.02.06-.04.12-.06.18 0 0-2.5-4.16-4.55-4.22-2.05-.06-.7-2.54 1.55-5.04z" opacity=".1"/><path fill="#FFD037" d="M20.16 154.2c0 .54.06.96.13.96s.13-.42.13-.95c0-.5-.08-.26-.15-.26-.07 0-.12-.25-.12.27zM19.44 154.84c.46.25.86.4.9.34.03-.07-.32-.32-.78-.57-.45-.24-.27-.06-.3 0-.04.08-.28 0 .18.24z"/><path fill="#A8A8A8" d="M20.53 161.4s3.17-.1 4.13-.8c.96-.67 4.88-1.5 5.12-.4.24 1.1 4.77 5.44 1.2 5.47-3.6.03-8.34-.56-9.3-1.14-.95-.58-1.15-3.14-1.15-3.14z"/><path d="M31.03 165.3c-3.58.02-8.33-.57-9.28-1.15-.73-.44-1.02-2.03-1.12-2.77h-.1s.2 2.56 1.15 3.15c.95.58 5.7 1.17 9.3 1.14 1.02 0 1.38-.38 1.36-.93-.14.34-.54.54-1.3.55z" opacity=".2"/><defs><linearGradient id="a" x2="1" gradientUnits="userSpaceOnUse" gradientTransform="matrix(0 -150.662 150.662 0 -18.493 150.662)"><stop stop-color="#808080" stop-opacity=".25"/><stop offset=".54" stop-color="#808080" stop-opacity=".12"/><stop offset="1" stop-color="#808080" stop-opacity=".1"/></linearGradient><linearGradient id="b" x2="1" gradientUnits="userSpaceOnUse" gradientTransform="matrix(0 -90002.5 31777.1 0 29888.7 114274)"><stop stop-color="#808080" stop-opacity=".25"/><stop offset=".54" stop-color="#808080" stop-opacity=".12"/><stop offset="1" stop-color="#808080" stop-opacity=".1"/></linearGradient></defs></svg>