<svg width="300" height="58" viewBox="0 0 300 58" fill="none" xmlns="http://www.w3.org/2000/svg">
<rect width="300" height="58" fill="white"/>
<path d="M4.77372 0.984388L9.32824 13.9783L13.8584 0.984388H18.6565V18.9002H14.9909V14.0029L15.3563 5.54949L10.5704 18.9002H8.06174L3.28802 5.56179L3.65336 14.0029V18.9002H0V0.984388H4.77372Z" transform="translate(80.689 16.3061)" fill="#565885"/>
<path d="M29.2512 18.9002C29.0888 18.5803 28.9711 18.1825 28.898 17.7067C28.0456 18.6665 26.9374 19.1463 25.5735 19.1463C24.2826 19.1463 23.211 18.769 22.3585 18.0143C21.5142 17.2596 21.092 16.308 21.092 15.1596C21.092 13.7486 21.6076 12.6658 22.6386 11.9111C23.6778 11.1564 25.1757 10.7749 27.1323 10.7667H28.7519V10.0038C28.7519 9.3886 28.5936 8.8964 28.277 8.52726C27.9685 8.15811 27.4773 7.97354 26.8035 7.97354C26.2108 7.97354 25.744 8.1171 25.403 8.40421C25.0701 8.69132 24.9037 9.08508 24.9037 9.58547H21.3843C21.3843 8.81437 21.6197 8.10069 22.0906 7.44443C22.5615 6.78817 23.2272 6.27547 24.0878 5.90633C24.9484 5.52898 25.9145 5.3403 26.9861 5.3403C28.6098 5.3403 29.8966 5.75457 30.8465 6.58309C31.8045 7.40342 32.2835 8.56007 32.2835 10.0531V15.824C32.2916 17.0873 32.4662 18.043 32.8071 18.6911V18.9002H29.2512ZM26.3407 16.427C26.8603 16.427 27.3393 16.3121 27.7777 16.0824C28.2161 15.8445 28.5408 15.5287 28.7519 15.135V12.8463H27.4367C25.675 12.8463 24.7373 13.4615 24.6236 14.692L24.6114 14.9012C24.6114 15.3441 24.7657 15.7092 25.0742 15.9963C25.3827 16.2834 25.8049 16.427 26.3407 16.427Z" transform="translate(80.689 16.3061)" fill="#565885"/>
<path d="M42.3911 8.92101C41.9121 8.85539 41.4899 8.82257 41.1246 8.82257C39.7932 8.82257 38.9204 9.27785 38.5064 10.1884V18.9002H34.987V5.5864H38.3115L38.409 7.17372C39.1153 5.95144 40.0936 5.3403 41.3438 5.3403C41.7335 5.3403 42.0988 5.39362 42.4398 5.50027L42.3911 8.92101Z" transform="translate(80.689 16.3061)" fill="#565885"/>
<path d="M48.8819 13.5599L47.6154 14.8396V18.9002H44.096V0H47.6154V10.4714L48.2974 9.58547L51.6706 5.5864H55.8963L51.1348 11.1359L56.3104 18.9002H52.2673L48.8819 13.5599Z" transform="translate(80.689 16.3061)" fill="#565885"/>
<path d="M63.2396 19.1463C61.3074 19.1463 59.7324 18.5475 58.5146 17.3498C57.3049 16.1522 56.7001 14.5566 56.7001 12.5632V12.2187C56.7001 10.8816 56.9558 9.68801 57.4673 8.638C57.9788 7.57978 58.7013 6.76766 59.6349 6.20164C60.5767 5.62742 61.6484 5.3403 62.8499 5.3403C64.6522 5.3403 66.0689 5.91453 67.1 7.06298C68.1392 8.21143 68.6587 9.83977 68.6587 11.948V13.4H60.2682C60.3819 14.2695 60.7228 14.9668 61.2911 15.4918C61.8676 16.0168 62.5942 16.2793 63.471 16.2793C64.8268 16.2793 65.8862 15.783 66.6494 14.7904L68.3786 16.7469C67.8509 17.5016 67.1365 18.0922 66.2353 18.5188C65.3342 18.9372 64.3356 19.1463 63.2396 19.1463ZM62.8377 8.21964C62.1395 8.21964 61.5712 8.45753 61.1328 8.93332C60.7025 9.4091 60.4265 10.09 60.3047 10.9759H65.2002V10.6929C65.184 9.9054 64.9729 9.29836 64.567 8.87179C64.1611 8.43702 63.5846 8.21964 62.8377 8.21964Z" transform="translate(80.689 16.3061)" fill="#565885"/>
<path d="M74.8816 2.31331V5.5864H77.1345V8.19503H74.8816V14.8396C74.8816 15.3318 74.975 15.6846 75.1617 15.8979C75.3484 16.1111 75.7057 16.2178 76.2334 16.2178C76.6231 16.2178 76.9681 16.1891 77.2685 16.1317V18.8264C76.5784 19.0397 75.868 19.1463 75.1374 19.1463C72.6693 19.1463 71.4109 17.8871 71.3622 15.3688V8.19503H69.4381V5.5864H71.3622V2.31331H74.8816Z" transform="translate(80.689 16.3061)" fill="#565885"/>
<path d="M82.8094 18.9002H79.2778V5.5864H82.8094V18.9002ZM79.0708 2.14104C79.0708 1.60783 79.2454 1.16896 79.5945 0.824425C79.9517 0.479889 80.4347 0.307621 81.0436 0.307621C81.6444 0.307621 82.1234 0.479889 82.4806 0.824425C82.8378 1.16896 83.0164 1.60783 83.0164 2.14104C83.0164 2.68246 82.8338 3.12543 82.4684 3.46997C82.1112 3.8145 81.6363 3.98677 81.0436 3.98677C80.451 3.98677 79.972 3.8145 79.6066 3.46997C79.2494 3.12543 79.0708 2.68246 79.0708 2.14104Z" transform="translate(80.689 16.3061)" fill="#565885"/>
<path d="M88.9592 5.5864L89.0688 7.12451C90.0106 5.93504 91.273 5.3403 92.8561 5.3403C94.2525 5.3403 95.2917 5.75457 95.9737 6.58309C96.6556 7.41162 97.0047 8.65031 97.021 10.2992V18.9002H93.5016V10.3853C93.5016 9.63059 93.3392 9.08508 93.0144 8.74874C92.6897 8.40421 92.1498 8.23194 91.3948 8.23194C90.4043 8.23194 89.6615 8.65851 89.1662 9.51165V18.9002H85.6468V5.5864H88.9592Z" transform="translate(80.689 16.3061)" fill="#565885"/>
<path d="M99.1886 12.1449C99.1886 10.1023 99.6676 8.45753 100.626 7.21064C101.592 5.96375 102.891 5.3403 104.523 5.3403C105.968 5.3403 107.092 5.8407 107.896 6.84149L108.042 5.5864H111.233V18.4573C111.233 19.6221 110.969 20.6352 110.441 21.4966C109.921 22.3579 109.187 23.0142 108.237 23.4653C107.287 23.9165 106.175 24.1421 104.9 24.1421C103.934 24.1421 102.992 23.9452 102.075 23.5515C101.157 23.1659 100.463 22.6655 99.9924 22.0503L101.551 19.8846C102.428 20.8772 103.491 21.3735 104.742 21.3735C105.675 21.3735 106.402 21.1192 106.922 20.6106C107.441 20.1102 107.701 19.3965 107.701 18.4696V17.7559C106.889 18.6829 105.821 19.1463 104.498 19.1463C102.915 19.1463 101.632 18.5229 100.65 17.276C99.6757 16.0209 99.1886 14.3598 99.1886 12.2925V12.1449ZM102.708 12.4033C102.708 13.6092 102.948 14.5566 103.427 15.2457C103.906 15.9266 104.563 16.267 105.399 16.267C106.471 16.267 107.238 15.8609 107.701 15.0488V9.45012C107.23 8.638 106.471 8.23194 105.424 8.23194C104.579 8.23194 103.914 8.58058 103.427 9.27785C102.948 9.97513 102.708 11.0169 102.708 12.4033Z" transform="translate(80.689 16.3061)" fill="#565885"/>
<path d="M134.31 12.9324C134.172 14.8602 133.465 16.3777 132.191 17.4852C130.924 18.5926 129.252 19.1463 127.173 19.1463C124.9 19.1463 123.11 18.3752 121.803 16.833C120.504 15.2826 119.854 13.158 119.854 10.4591V9.36399C119.854 7.64131 120.155 6.12371 120.756 4.81119C121.356 3.49868 122.213 2.49378 123.325 1.79651C124.445 1.09103 125.744 0.738291 127.222 0.738291C129.268 0.738291 130.916 1.29201 132.166 2.39944C133.417 3.50688 134.139 5.06139 134.334 7.06298H130.681C130.591 5.90633 130.271 5.0696 129.718 4.55279C129.175 4.02779 128.342 3.76528 127.222 3.76528C126.004 3.76528 125.091 4.20826 124.482 5.09421C123.881 5.97195 123.573 7.33779 123.557 9.19172V10.5453C123.557 12.4812 123.845 13.8963 124.421 14.7904C125.006 15.6846 125.923 16.1317 127.173 16.1317C128.302 16.1317 129.142 15.8733 129.694 15.3564C130.254 14.8314 130.575 14.0234 130.656 12.9324H134.31Z" transform="translate(80.689 16.3061)" fill="#565885"/>
<path d="M140.191 18.9002H136.66V0H140.191V18.9002Z" transform="translate(80.689 16.3061)" fill="#565885"/>
<path d="M146.816 18.9002H143.285V5.5864H146.816V18.9002ZM143.078 2.14104C143.078 1.60783 143.252 1.16896 143.601 0.824425C143.958 0.479889 144.442 0.307621 145.05 0.307621C145.651 0.307621 146.13 0.479889 146.487 0.824425C146.845 1.16896 147.023 1.60783 147.023 2.14104C147.023 2.68246 146.841 3.12543 146.475 3.46997C146.118 3.8145 145.643 3.98677 145.05 3.98677C144.458 3.98677 143.979 3.8145 143.613 3.46997C143.256 3.12543 143.078 2.68246 143.078 2.14104Z" transform="translate(80.689 16.3061)" fill="#565885"/>
<path d="M155.207 16.2793C155.856 16.2793 156.384 16.0988 156.79 15.7379C157.196 15.377 157.407 14.8971 157.423 14.2982H160.723C160.715 15.2006 160.472 16.0291 159.993 16.7838C159.514 17.5303 158.856 18.1127 158.02 18.5311C157.192 18.9413 156.274 19.1463 155.268 19.1463C153.384 19.1463 151.898 18.5434 150.811 17.3375C149.723 16.1234 149.179 14.45 149.179 12.3171V12.0834C149.179 10.0326 149.719 8.39601 150.798 7.17372C151.878 5.95144 153.36 5.3403 155.243 5.3403C156.891 5.3403 158.211 5.81609 159.201 6.76766C160.2 7.71104 160.707 8.97023 160.723 10.5453H157.423C157.407 9.85618 157.196 9.29836 156.79 8.87179C156.384 8.43702 155.848 8.21964 155.182 8.21964C154.362 8.21964 153.741 8.52316 153.319 9.1302C152.905 9.72903 152.698 10.7052 152.698 12.0587V12.4279C152.698 13.7978 152.905 14.7822 153.319 15.3811C153.733 15.9799 154.362 16.2793 155.207 16.2793Z" transform="translate(80.689 16.3061)" fill="#565885"/>
<path d="M167.519 13.5599L166.252 14.8396V18.9002H162.733V0H166.252V10.4714L166.934 9.58547L170.307 5.5864H174.533L169.771 11.1359L174.947 18.9002H170.904L167.519 13.5599Z" transform="translate(80.689 16.3061)" fill="#565885"/>
<path d="M190.669 18.9002H187.149V5.19264L182.948 6.50926V3.61762L190.291 0.959778H190.669V18.9002Z" transform="translate(80.689 16.3061)" fill="#565885"/>
<path d="M208.375 11.4927C208.375 13.9701 207.868 15.865 206.853 17.1776C205.838 18.4901 204.353 19.1463 202.396 19.1463C200.464 19.1463 198.986 18.5024 197.963 17.2145C196.94 15.9266 196.417 14.0808 196.392 11.6773V8.3796C196.392 5.87761 196.904 3.97857 197.927 2.68246C198.958 1.38635 200.439 0.738291 202.372 0.738291C204.304 0.738291 205.781 1.38224 206.804 2.67015C207.827 3.94986 208.351 5.79148 208.375 8.19503V11.4927ZM204.856 7.8751C204.856 6.39032 204.653 5.31159 204.247 4.63893C203.849 3.95806 203.224 3.61762 202.372 3.61762C201.543 3.61762 200.931 3.94165 200.533 4.58971C200.143 5.22956 199.936 6.23445 199.912 7.60439V11.9603C199.912 13.4205 200.106 14.5074 200.496 15.2211C200.894 15.9266 201.527 16.2793 202.396 16.2793C203.256 16.2793 203.878 15.9389 204.259 15.258C204.641 14.5771 204.84 13.5353 204.856 12.1326V7.8751Z" transform="translate(80.689 16.3061)" fill="#565885"/>
<path d="M219.311 18.9002H215.792V5.19264L211.59 6.50926V3.61762L218.933 0.959778H219.311V18.9002Z" transform="translate(80.689 16.3061)" fill="#565885"/>
<path d="M11.1399 41.6387C10.3602 41.03 9.61439 40.3788 8.90572 39.688V31.8975C8.90572 31.0902 9.22465 30.316 9.79234 29.7451C10.36 29.1743 11.13 28.8536 11.9328 28.8536C12.7356 28.8536 13.5056 29.1743 14.0733 29.7451C14.641 30.316 14.9599 31.0902 14.9599 31.8975V44.1599C13.6199 43.4264 12.3422 42.5831 11.1399 41.6387V41.6387ZM26.1806 47.5448V22.278C26.1806 21.4707 25.8617 20.6965 25.294 20.1256C24.7263 19.5548 23.9563 19.2341 23.1535 19.2341C22.3507 19.2341 21.5807 19.5548 21.013 20.1256C20.4453 20.6965 20.1264 21.4707 20.1264 22.278V46.3638C20.4418 46.4604 20.756 46.5582 21.0764 46.6434C22.7481 47.0943 24.4561 47.3959 26.1806 47.5448V47.5448ZM37.4013 46.3024V12.6572C37.4013 11.8499 37.0823 11.0757 36.5146 10.5048C35.947 9.93397 35.177 9.61327 34.3742 9.61327C33.5713 9.61327 32.8014 9.93397 32.2337 10.5048C31.666 11.0757 31.3471 11.8499 31.3471 12.6572V47.526C33.0731 47.3722 34.7811 47.0566 36.4487 46.5832C36.7704 46.5042 37.0908 46.4065 37.4112 46.3024H37.4013ZM48.6332 39.5325V3.04395C48.6332 2.23664 48.3142 1.4624 47.7465 0.891552C47.1789 0.320701 46.4089 0 45.6061 0C44.8032 0 44.0333 0.320701 43.4656 0.891552C42.8979 1.4624 42.579 2.23664 42.579 3.04395V44.0683C43.916 43.3244 45.1899 42.4711 46.3878 41.5171C47.1773 40.9021 47.9304 40.2411 48.6431 39.5375L48.6332 39.5325ZM62.2812 30.2703L52.7686 36.7117L55.1374 37.8739V37.8801C53.3197 40.4965 51.1285 42.8291 48.6344 44.803C45.3098 47.4485 41.4901 49.3948 37.4025 50.5261C35.4243 51.0835 33.3966 51.4446 31.3483 51.6042C30.4644 51.6832 29.568 51.7196 28.6728 51.7196C27.8375 51.7196 27.0009 51.6895 26.1793 51.6218C24.1328 51.4707 22.1054 51.1222 20.1252 50.5812C18.3513 50.0986 16.6229 49.4606 14.9599 48.6744C12.8093 47.6621 10.7785 46.4102 8.90572 44.9422C7.59745 43.915 6.36686 42.7915 5.22409 41.581C4.93789 41.2729 4.58927 41.03 4.20177 40.8689C3.65536 40.6369 3.05327 40.571 2.47004 40.6796C2.26161 40.7231 2.05723 40.7843 1.85914 40.8627C1.79203 40.888 1.727 40.9186 1.66465 40.9542C1.40037 41.0875 1.15747 41.2599 0.944028 41.4657C0.361737 42.0214 0.0225946 42.7868 0.00108857 43.5938C-0.0204175 44.4007 0.277471 45.1833 0.829328 45.7696C3.21584 48.3074 5.93257 50.5092 8.90572 52.3151C10.8292 53.4895 12.8558 54.4841 14.9599 55.2863C16.6435 55.9373 18.3718 56.4644 20.1314 56.8635C22.1217 57.3139 24.1445 57.6049 26.1806 57.7335C27.0034 57.7887 27.84 57.8125 28.6741 57.8125C29.5692 57.8125 30.4656 57.7824 31.3496 57.721C33.3887 57.5829 35.4133 57.2794 37.4038 56.8133C41.3687 55.8971 45.1611 54.3452 48.6357 52.2173C53.4358 49.2703 57.5329 45.298 60.6368 40.5818L63.0841 41.7816L62.2812 30.2703Z" fill="url(#paint0_linear)"/>
<defs>
<linearGradient id="paint0_linear" x2="1" gradientUnits="userSpaceOnUse" gradientTransform="matrix(45.2103 -38.892 38.6766 44.9371 -16.7098 25.8837)">
<stop stop-color="#6282F2"/>
<stop offset="1" stop-color="#62CFF2"/>
</linearGradient>
</defs>
</svg>
